<mxfile host="65bd71144e">
    <diagram id="9sPYN3CKfLGzWkUCG3fF" name="Page-1">
        <mxGraphModel dx="1242" dy="659" grid="1" gridSize="10" guides="1" tooltips="1" connect="1" arrows="1" fold="1" page="1" pageScale="1" pageWidth="850" pageHeight="1100" math="0" shadow="0">
            <root>
                <mxCell id="0"/>
                <mxCell id="1" parent="0"/>
                <mxCell id="540" value="" style="group" parent="1" vertex="1" connectable="0">
                    <mxGeometry x="110" y="1040" width="1000" height="590" as="geometry"/>
                </mxCell>
                <mxCell id="514" value="Bikas" style="ellipse;whiteSpace=wrap;html=1;aspect=fixed;strokeWidth=5;fontStyle=1;fillColor=#d80073;fontColor=#ffffff;strokeColor=light-dark(#A50040,#0000CC);" parent="540" vertex="1">
                    <mxGeometry x="30" y="500" width="80" height="80" as="geometry"/>
                </mxCell>
                <mxCell id="515" value="IISc" style="ellipse;whiteSpace=wrap;html=1;aspect=fixed;strokeWidth=5;fontStyle=1;fillColor=#60a917;fontColor=#ffffff;strokeColor=#2D7600;" parent="540" vertex="1">
                    <mxGeometry x="660" y="56" width="80" height="80" as="geometry"/>
                </mxCell>
                <mxCell id="522" style="edgeStyle=none;html=1;rounded=0;curved=1;flowAnimation=1;" parent="540" source="516" target="514" edge="1">
                    <mxGeometry relative="1" as="geometry">
                        <Array as="points">
                            <mxPoint x="140" y="30"/>
                        </Array>
                    </mxGeometry>
                </mxCell>
                <mxCell id="516" value="IIT" style="ellipse;whiteSpace=wrap;html=1;aspect=fixed;strokeWidth=5;fontStyle=1;fillColor=#f0a30a;fontColor=#000000;strokeColor=#BD7000;" parent="540" vertex="1">
                    <mxGeometry x="540" y="170" width="80" height="80" as="geometry"/>
                </mxCell>
                <mxCell id="524" style="edgeStyle=none;html=1;rounded=0;curved=1;dashed=1;flowAnimation=1;" parent="540" source="517" edge="1">
                    <mxGeometry relative="1" as="geometry">
                        <mxPoint x="80" y="500" as="targetPoint"/>
                        <Array as="points">
                            <mxPoint x="170" y="170"/>
                        </Array>
                    </mxGeometry>
                </mxCell>
                <mxCell id="517" value="NIT" style="ellipse;whiteSpace=wrap;html=1;aspect=fixed;strokeWidth=5;fontStyle=1;fillColor=#bac8d3;strokeColor=#23445d;" parent="540" vertex="1">
                    <mxGeometry x="370" y="280" width="80" height="80" as="geometry"/>
                </mxCell>
                <mxCell id="518" value="BITS" style="ellipse;whiteSpace=wrap;html=1;aspect=fixed;strokeWidth=5;fontStyle=1;fillColor=#f8cecc;gradientColor=#ea6b66;strokeColor=#b85450;" parent="540" vertex="1">
                    <mxGeometry x="200" y="400" width="80" height="80" as="geometry"/>
                </mxCell>
                <mxCell id="525" style="edgeStyle=none;html=1;entryX=0.675;entryY=0;entryDx=0;entryDy=0;entryPerimeter=0;rounded=0;curved=1;dashed=1;flowAnimation=1;" parent="540" source="518" target="514" edge="1">
                    <mxGeometry relative="1" as="geometry">
                        <Array as="points">
                            <mxPoint x="120" y="390"/>
                        </Array>
                    </mxGeometry>
                </mxCell>
                <mxCell id="527" value="" style="endArrow=none;html=1;" parent="540" edge="1">
                    <mxGeometry width="50" height="50" relative="1" as="geometry">
                        <mxPoint y="586" as="sourcePoint"/>
                        <mxPoint x="760" y="586" as="targetPoint"/>
                    </mxGeometry>
                </mxCell>
                <mxCell id="528" value="" style="endArrow=classic;startArrow=classic;html=1;" parent="540" edge="1">
                    <mxGeometry width="50" height="50" relative="1" as="geometry">
                        <mxPoint x="700" y="590" as="sourcePoint"/>
                        <mxPoint x="700" y="140" as="targetPoint"/>
                    </mxGeometry>
                </mxCell>
                <mxCell id="531" value="&lt;h1 style=&quot;margin-top: 0px;&quot;&gt;Highest Potential&lt;/h1&gt;&lt;p&gt;1. Most work done&lt;br&gt;2. Most Hardwork x Duration&amp;nbsp;&lt;br&gt;3. Most Force x Distance&lt;/p&gt;" style="text;html=1;whiteSpace=wrap;overflow=hidden;rounded=0;" parent="540" vertex="1">
                    <mxGeometry x="760" width="240" height="120" as="geometry"/>
                </mxCell>
                <mxCell id="532" value="" style="endArrow=classic;startArrow=classic;html=1;" parent="540" edge="1">
                    <mxGeometry width="50" height="50" relative="1" as="geometry">
                        <mxPoint x="239.5" y="586" as="sourcePoint"/>
                        <mxPoint x="240" y="490" as="targetPoint"/>
                    </mxGeometry>
                </mxCell>
                <mxCell id="533" value="&lt;h1 style=&quot;margin-top: 0px;&quot;&gt;Lowest Potential&lt;/h1&gt;&lt;p&gt;1. Least work done&lt;br&gt;2. Least hardwork x least duration&lt;br&gt;3. Least Force x Distance&lt;/p&gt;" style="text;html=1;whiteSpace=wrap;overflow=hidden;rounded=0;" parent="540" vertex="1">
                    <mxGeometry x="280" y="460" width="240" height="120" as="geometry"/>
                </mxCell>
                <mxCell id="535" value="" style="endArrow=classic;startArrow=classic;html=1;" parent="540" edge="1">
                    <mxGeometry width="50" height="50" relative="1" as="geometry">
                        <mxPoint x="410" y="583" as="sourcePoint"/>
                        <mxPoint x="410" y="365" as="targetPoint"/>
                    </mxGeometry>
                </mxCell>
                <mxCell id="536" value="" style="endArrow=classic;startArrow=classic;html=1;entryX=0.5;entryY=1;entryDx=0;entryDy=0;" parent="540" target="516" edge="1">
                    <mxGeometry width="50" height="50" relative="1" as="geometry">
                        <mxPoint x="579.5" y="578" as="sourcePoint"/>
                        <mxPoint x="579.5" y="360" as="targetPoint"/>
                    </mxGeometry>
                </mxCell>
                <mxCell id="537" value="+ Positive Potential" style="text;html=1;align=center;verticalAlign=middle;whiteSpace=wrap;rounded=0;fontStyle=1" parent="540" vertex="1">
                    <mxGeometry x="630" y="26" width="120" height="30" as="geometry"/>
                </mxCell>
                <mxCell id="538" value="" style="strokeWidth=2;html=1;shape=mxgraph.flowchart.annotation_2;align=left;labelPosition=right;pointerEvents=1;rotation=-180;" parent="540" vertex="1">
                    <mxGeometry x="760" y="134" width="50" height="446" as="geometry"/>
                </mxCell>
                <mxCell id="539" value="Potential Difference" style="text;html=1;align=center;verticalAlign=middle;whiteSpace=wrap;rounded=0;" parent="540" vertex="1">
                    <mxGeometry x="821.5" y="340" width="120" height="30" as="geometry"/>
                </mxCell>
                <mxCell id="523" style="edgeStyle=none;html=1;entryX=0.5;entryY=0;entryDx=0;entryDy=0;rounded=0;curved=1;flowAnimation=1;dashed=1;" parent="540" source="515" target="514" edge="1">
                    <mxGeometry relative="1" as="geometry">
                        <Array as="points">
                            <mxPoint x="40" y="-80"/>
                        </Array>
                    </mxGeometry>
                </mxCell>
                <mxCell id="541" value="" style="group" parent="1" vertex="1" connectable="0">
                    <mxGeometry x="40" y="400" width="1011.5" height="502.75" as="geometry"/>
                </mxCell>
                <mxCell id="542" value="" style="group" parent="541" vertex="1" connectable="0">
                    <mxGeometry x="379" y="10" width="632.5" height="492.75" as="geometry"/>
                </mxCell>
                <mxCell id="543" value="" style="shape=xor;whiteSpace=wrap;html=1;rotation=90;strokeWidth=4;fillColor=light-dark(#0000FF,#0000FF);fontColor=#000000;strokeColor=#C73500;" parent="542" vertex="1">
                    <mxGeometry x="229.75" y="90" width="173" height="632.5" as="geometry"/>
                </mxCell>
                <mxCell id="544" value="" style="ellipse;whiteSpace=wrap;html=1;strokeWidth=4;fillColor=light-dark(#FA6800,#FFFF33);fontColor=#000000;strokeColor=#C73500;" parent="542" vertex="1">
                    <mxGeometry x="1" y="266.75" width="630" height="110" as="geometry"/>
                </mxCell>
                <mxCell id="545" value="" style="ellipse;whiteSpace=wrap;html=1;aspect=fixed;fillColor=light-dark(#FA6800,#FFFF33);fontColor=#000000;strokeColor=light-dark(#C73500,#CC0066);strokeWidth=4;" parent="542" vertex="1">
                    <mxGeometry x="41" y="301.75" width="40" height="40" as="geometry"/>
                </mxCell>
                <mxCell id="546" value="" style="ellipse;whiteSpace=wrap;html=1;aspect=fixed;fillColor=light-dark(#FA6800,#FFFF33);fontColor=#000000;strokeColor=light-dark(#C73500,#CC0066);strokeWidth=4;" parent="542" vertex="1">
                    <mxGeometry x="91" y="301.75" width="40" height="40" as="geometry"/>
                </mxCell>
                <mxCell id="547" value="" style="ellipse;whiteSpace=wrap;html=1;aspect=fixed;fillColor=light-dark(#FA6800,#FFFF33);fontColor=#000000;strokeColor=light-dark(#C73500,#CC0066);strokeWidth=4;" parent="542" vertex="1">
                    <mxGeometry x="141" y="301.75" width="40" height="40" as="geometry"/>
                </mxCell>
                <mxCell id="548" value="" style="ellipse;whiteSpace=wrap;html=1;aspect=fixed;fillColor=light-dark(#FA6800,#FFFF33);fontColor=#000000;strokeColor=light-dark(#C73500,#CC0066);strokeWidth=4;" parent="542" vertex="1">
                    <mxGeometry x="198.5" y="301.75" width="40" height="40" as="geometry"/>
                </mxCell>
                <mxCell id="549" value="" style="ellipse;whiteSpace=wrap;html=1;aspect=fixed;fillColor=light-dark(#FA6800,#FFFF33);fontColor=#000000;strokeColor=light-dark(#C73500,#CC0066);strokeWidth=4;" parent="542" vertex="1">
                    <mxGeometry x="256" y="301.75" width="40" height="40" as="geometry"/>
                </mxCell>
                <mxCell id="550" value="" style="ellipse;whiteSpace=wrap;html=1;aspect=fixed;fillColor=light-dark(#FA6800,#FFFF33);fontColor=#000000;strokeColor=light-dark(#C73500,#CC0066);strokeWidth=4;" parent="542" vertex="1">
                    <mxGeometry x="311" y="301.75" width="40" height="40" as="geometry"/>
                </mxCell>
                <mxCell id="551" value="" style="ellipse;whiteSpace=wrap;html=1;aspect=fixed;fillColor=light-dark(#FA6800,#FFFF33);fontColor=#000000;strokeColor=light-dark(#C73500,#CC0066);strokeWidth=4;" parent="542" vertex="1">
                    <mxGeometry x="362.75" y="301.75" width="40" height="40" as="geometry"/>
                </mxCell>
                <mxCell id="552" value="" style="ellipse;whiteSpace=wrap;html=1;aspect=fixed;fillColor=light-dark(#FA6800,#FFFF33);fontColor=#000000;strokeColor=light-dark(#C73500,#CC0066);strokeWidth=4;" parent="542" vertex="1">
                    <mxGeometry x="418.5" y="301.75" width="40" height="40" as="geometry"/>
                </mxCell>
                <mxCell id="553" value="" style="ellipse;whiteSpace=wrap;html=1;aspect=fixed;fillColor=light-dark(#FA6800,#FFFF33);fontColor=#000000;strokeColor=light-dark(#C73500,#CC0066);strokeWidth=4;" parent="542" vertex="1">
                    <mxGeometry x="471" y="301.75" width="40" height="40" as="geometry"/>
                </mxCell>
                <mxCell id="554" value="" style="ellipse;whiteSpace=wrap;html=1;aspect=fixed;fillColor=light-dark(#FA6800,#FFFF33);fontColor=#000000;strokeColor=light-dark(#C73500,#CC0066);strokeWidth=4;" parent="542" vertex="1">
                    <mxGeometry x="521" y="301.75" width="40" height="40" as="geometry"/>
                </mxCell>
                <mxCell id="555" value="" style="ellipse;whiteSpace=wrap;html=1;aspect=fixed;fillColor=light-dark(#FA6800,#FFFF33);fontColor=#000000;strokeColor=light-dark(#C73500,#CC0066);strokeWidth=4;" parent="542" vertex="1">
                    <mxGeometry x="571" y="301.75" width="40" height="40" as="geometry"/>
                </mxCell>
                <mxCell id="556" value="" style="ellipse;whiteSpace=wrap;html=1;aspect=fixed;fillColor=light-dark(#FA6800,#FFFF33);fontColor=#000000;strokeColor=light-dark(#C73500,#CC0066);strokeWidth=4;" parent="542" vertex="1">
                    <mxGeometry x="61" y="266.75" width="40" height="40" as="geometry"/>
                </mxCell>
                <mxCell id="557" value="" style="ellipse;whiteSpace=wrap;html=1;aspect=fixed;fillColor=light-dark(#FA6800,#FFFF33);fontColor=#000000;strokeColor=light-dark(#C73500,#CC0066);strokeWidth=4;" parent="542" vertex="1">
                    <mxGeometry x="114" y="267.75" width="40" height="40" as="geometry"/>
                </mxCell>
                <mxCell id="558" value="" style="ellipse;whiteSpace=wrap;html=1;aspect=fixed;fillColor=light-dark(#FA6800,#FFFF33);fontColor=#000000;strokeColor=light-dark(#C73500,#CC0066);strokeWidth=4;" parent="542" vertex="1">
                    <mxGeometry x="171" y="272.75" width="40" height="40" as="geometry"/>
                </mxCell>
                <mxCell id="559" value="" style="ellipse;whiteSpace=wrap;html=1;aspect=fixed;fillColor=light-dark(#FA6800,#FFFF33);fontColor=#000000;strokeColor=light-dark(#C73500,#CC0066);strokeWidth=4;" parent="542" vertex="1">
                    <mxGeometry x="227.75" y="271.75" width="40" height="40" as="geometry"/>
                </mxCell>
                <mxCell id="560" value="" style="ellipse;whiteSpace=wrap;html=1;aspect=fixed;fillColor=light-dark(#FA6800,#FFFF33);fontColor=#000000;strokeColor=light-dark(#C73500,#CC0066);strokeWidth=4;" parent="542" vertex="1">
                    <mxGeometry x="285" y="272.75" width="40" height="40" as="geometry"/>
                </mxCell>
                <mxCell id="561" value="" style="ellipse;whiteSpace=wrap;html=1;aspect=fixed;fillColor=light-dark(#FA6800,#FFFF33);fontColor=#000000;strokeColor=light-dark(#C73500,#CC0066);strokeWidth=4;" parent="542" vertex="1">
                    <mxGeometry x="339" y="270.75" width="40" height="40" as="geometry"/>
                </mxCell>
                <mxCell id="562" value="" style="ellipse;whiteSpace=wrap;html=1;aspect=fixed;fillColor=light-dark(#FA6800,#FFFF33);fontColor=#000000;strokeColor=light-dark(#C73500,#CC0066);strokeWidth=4;" parent="542" vertex="1">
                    <mxGeometry x="391" y="272.75" width="40" height="40" as="geometry"/>
                </mxCell>
                <mxCell id="563" value="" style="ellipse;whiteSpace=wrap;html=1;aspect=fixed;fillColor=light-dark(#FA6800,#FFFF33);fontColor=#000000;strokeColor=light-dark(#C73500,#CC0066);strokeWidth=4;" parent="542" vertex="1">
                    <mxGeometry x="441" y="271.75" width="40" height="40" as="geometry"/>
                </mxCell>
                <mxCell id="564" value="" style="ellipse;whiteSpace=wrap;html=1;aspect=fixed;fillColor=light-dark(#FA6800,#FFFF33);fontColor=#000000;strokeColor=light-dark(#C73500,#CC0066);strokeWidth=4;" parent="542" vertex="1">
                    <mxGeometry x="491" y="271.75" width="40" height="40" as="geometry"/>
                </mxCell>
                <mxCell id="565" value="" style="ellipse;whiteSpace=wrap;html=1;aspect=fixed;fillColor=light-dark(#FA6800,#FFFF33);fontColor=#000000;strokeColor=light-dark(#C73500,#CC0066);strokeWidth=4;" parent="542" vertex="1">
                    <mxGeometry x="541" y="272.75" width="40" height="40" as="geometry"/>
                </mxCell>
                <mxCell id="566" value="" style="ellipse;whiteSpace=wrap;html=1;aspect=fixed;fillColor=light-dark(#FA6800,#FFFF33);fontColor=#000000;strokeColor=light-dark(#C73500,#CC0066);strokeWidth=4;" parent="542" vertex="1">
                    <mxGeometry x="163.5" y="327.75" width="40" height="40" as="geometry"/>
                </mxCell>
                <mxCell id="567" value="" style="ellipse;whiteSpace=wrap;html=1;aspect=fixed;fillColor=light-dark(#FA6800,#FFFF33);fontColor=#000000;strokeColor=light-dark(#C73500,#CC0066);strokeWidth=4;" parent="542" vertex="1">
                    <mxGeometry x="227.75" y="327.75" width="40" height="40" as="geometry"/>
                </mxCell>
                <mxCell id="568" value="" style="ellipse;whiteSpace=wrap;html=1;aspect=fixed;fillColor=light-dark(#FA6800,#FFFF33);fontColor=#000000;strokeColor=light-dark(#C73500,#CC0066);strokeWidth=4;" parent="542" vertex="1">
                    <mxGeometry x="278.5" y="332.75" width="40" height="40" as="geometry"/>
                </mxCell>
                <mxCell id="569" value="" style="ellipse;whiteSpace=wrap;html=1;aspect=fixed;fillColor=light-dark(#FA6800,#FFFF33);fontColor=#000000;strokeColor=light-dark(#C73500,#CC0066);strokeWidth=4;" parent="542" vertex="1">
                    <mxGeometry x="333.5" y="332.75" width="40" height="40" as="geometry"/>
                </mxCell>
                <mxCell id="570" value="" style="ellipse;whiteSpace=wrap;html=1;aspect=fixed;fillColor=light-dark(#FA6800,#FFFF33);fontColor=#000000;strokeColor=light-dark(#C73500,#CC0066);strokeWidth=4;" parent="542" vertex="1">
                    <mxGeometry x="391" y="331.75" width="40" height="40" as="geometry"/>
                </mxCell>
                <mxCell id="571" value="" style="ellipse;whiteSpace=wrap;html=1;aspect=fixed;fillColor=light-dark(#FA6800,#FFFF33);fontColor=#000000;strokeColor=light-dark(#C73500,#CC0066);strokeWidth=4;" parent="542" vertex="1">
                    <mxGeometry x="443" y="327.75" width="40" height="40" as="geometry"/>
                </mxCell>
                <mxCell id="572" value="" style="ellipse;whiteSpace=wrap;html=1;aspect=fixed;fillColor=light-dark(#FA6800,#FFFF33);fontColor=#000000;strokeColor=light-dark(#C73500,#CC0066);strokeWidth=4;" parent="542" vertex="1">
                    <mxGeometry x="493.5" y="323.75" width="40" height="40" as="geometry"/>
                </mxCell>
                <mxCell id="573" value="" style="ellipse;whiteSpace=wrap;html=1;aspect=fixed;fillColor=light-dark(#FA6800,#FFFF33);fontColor=#000000;strokeColor=light-dark(#C73500,#CC0066);strokeWidth=4;" parent="542" vertex="1">
                    <mxGeometry x="541" y="312.75" width="40" height="40" as="geometry"/>
                </mxCell>
                <mxCell id="574" value="" style="ellipse;whiteSpace=wrap;html=1;aspect=fixed;fillColor=light-dark(#FA6800,#FFFF33);fontColor=#000000;strokeColor=light-dark(#C73500,#CC0066);strokeWidth=4;" parent="542" vertex="1">
                    <mxGeometry x="91" y="237.75" width="40" height="40" as="geometry"/>
                </mxCell>
                <mxCell id="575" value="" style="ellipse;whiteSpace=wrap;html=1;aspect=fixed;fillColor=light-dark(#FA6800,#FFFF33);fontColor=#000000;strokeColor=light-dark(#C73500,#CC0066);strokeWidth=4;" parent="542" vertex="1">
                    <mxGeometry x="144" y="238.75" width="40" height="40" as="geometry"/>
                </mxCell>
                <mxCell id="576" value="" style="ellipse;whiteSpace=wrap;html=1;aspect=fixed;fillColor=light-dark(#FA6800,#FFFF33);fontColor=#000000;strokeColor=light-dark(#C73500,#CC0066);strokeWidth=4;" parent="542" vertex="1">
                    <mxGeometry x="257.75" y="242.75" width="40" height="40" as="geometry"/>
                </mxCell>
                <mxCell id="577" value="" style="ellipse;whiteSpace=wrap;html=1;aspect=fixed;fillColor=light-dark(#FA6800,#FFFF33);fontColor=#000000;strokeColor=light-dark(#C73500,#CC0066);strokeWidth=4;" parent="542" vertex="1">
                    <mxGeometry x="369" y="241.75" width="40" height="40" as="geometry"/>
                </mxCell>
                <mxCell id="578" value="" style="ellipse;whiteSpace=wrap;html=1;aspect=fixed;fillColor=light-dark(#FA6800,#FFFF33);fontColor=#000000;strokeColor=light-dark(#C73500,#CC0066);strokeWidth=4;" parent="542" vertex="1">
                    <mxGeometry x="471" y="242.75" width="40" height="40" as="geometry"/>
                </mxCell>
                <mxCell id="579" value="" style="ellipse;whiteSpace=wrap;html=1;aspect=fixed;fillColor=light-dark(#FA6800,#FFFF33);fontColor=#000000;strokeColor=light-dark(#C73500,#CC0066);strokeWidth=4;" parent="542" vertex="1">
                    <mxGeometry x="521" y="242.75" width="40" height="40" as="geometry"/>
                </mxCell>
                <mxCell id="580" value="" style="ellipse;whiteSpace=wrap;html=1;aspect=fixed;fillColor=light-dark(#FA6800,#FFFF33);fontColor=#000000;strokeColor=light-dark(#C73500,#CC0066);strokeWidth=4;" parent="542" vertex="1">
                    <mxGeometry x="216" y="238.75" width="40" height="40" as="geometry"/>
                </mxCell>
                <mxCell id="581" value="" style="ellipse;whiteSpace=wrap;html=1;aspect=fixed;fillColor=light-dark(#FA6800,#FFFF33);fontColor=#000000;strokeColor=light-dark(#C73500,#CC0066);strokeWidth=4;" parent="542" vertex="1">
                    <mxGeometry x="184" y="237.75" width="40" height="40" as="geometry"/>
                </mxCell>
                <mxCell id="582" value="" style="ellipse;whiteSpace=wrap;html=1;aspect=fixed;fillColor=light-dark(#FA6800,#FFFF33);fontColor=#000000;strokeColor=light-dark(#C73500,#CC0066);strokeWidth=4;" parent="542" vertex="1">
                    <mxGeometry x="299" y="238.75" width="40" height="40" as="geometry"/>
                </mxCell>
                <mxCell id="583" value="" style="ellipse;whiteSpace=wrap;html=1;aspect=fixed;fillColor=light-dark(#FA6800,#FFFF33);fontColor=#000000;strokeColor=light-dark(#C73500,#CC0066);strokeWidth=4;" parent="542" vertex="1">
                    <mxGeometry x="339" y="241.75" width="40" height="40" as="geometry"/>
                </mxCell>
                <mxCell id="584" value="" style="ellipse;whiteSpace=wrap;html=1;aspect=fixed;fillColor=light-dark(#FA6800,#FFFF33);fontColor=#000000;strokeColor=light-dark(#C73500,#CC0066);strokeWidth=4;" parent="542" vertex="1">
                    <mxGeometry x="431" y="237.75" width="40" height="40" as="geometry"/>
                </mxCell>
                <mxCell id="585" value="" style="ellipse;whiteSpace=wrap;html=1;aspect=fixed;fillColor=light-dark(#FA6800,#FFFF33);fontColor=#000000;strokeColor=light-dark(#C73500,#CC0066);strokeWidth=4;" parent="542" vertex="1">
                    <mxGeometry x="495" y="242.75" width="40" height="40" as="geometry"/>
                </mxCell>
                <mxCell id="586" value="" style="ellipse;whiteSpace=wrap;html=1;aspect=fixed;fillColor=light-dark(#FA6800,#FFFF33);fontColor=#000000;strokeColor=light-dark(#C73500,#CC0066);strokeWidth=4;" parent="542" vertex="1">
                    <mxGeometry x="405" y="237.75" width="40" height="40" as="geometry"/>
                </mxCell>
                <mxCell id="587" value="" style="ellipse;whiteSpace=wrap;html=1;aspect=fixed;fillColor=light-dark(#FA6800,#FFFF33);fontColor=#000000;strokeColor=light-dark(#C73500,#CC0066);strokeWidth=4;" parent="542" vertex="1">
                    <mxGeometry x="455" y="237.75" width="40" height="40" as="geometry"/>
                </mxCell>
                <mxCell id="588" value="" style="ellipse;whiteSpace=wrap;html=1;aspect=fixed;fillColor=light-dark(#FA6800,#FFFF33);fontColor=#000000;strokeColor=light-dark(#C73500,#CC0066);strokeWidth=4;" parent="542" vertex="1">
                    <mxGeometry x="41" y="281.75" width="40" height="40" as="geometry"/>
                </mxCell>
                <mxCell id="589" value="" style="ellipse;whiteSpace=wrap;html=1;aspect=fixed;fillColor=light-dark(#FA6800,#FFFF33);fontColor=#000000;strokeColor=light-dark(#C73500,#CC0066);strokeWidth=4;" parent="542" vertex="1">
                    <mxGeometry x="91" y="281.75" width="40" height="40" as="geometry"/>
                </mxCell>
                <mxCell id="590" value="" style="ellipse;whiteSpace=wrap;html=1;aspect=fixed;fillColor=light-dark(#FA6800,#FFFF33);fontColor=#000000;strokeColor=light-dark(#C73500,#CC0066);strokeWidth=4;" parent="542" vertex="1">
                    <mxGeometry x="141" y="281.75" width="40" height="40" as="geometry"/>
                </mxCell>
                <mxCell id="591" value="" style="ellipse;whiteSpace=wrap;html=1;aspect=fixed;fillColor=light-dark(#FA6800,#FFFF33);fontColor=#000000;strokeColor=light-dark(#C73500,#CC0066);strokeWidth=4;" parent="542" vertex="1">
                    <mxGeometry x="198.5" y="281.75" width="40" height="40" as="geometry"/>
                </mxCell>
                <mxCell id="592" value="" style="ellipse;whiteSpace=wrap;html=1;aspect=fixed;fillColor=light-dark(#FA6800,#FFFF33);fontColor=#000000;strokeColor=light-dark(#C73500,#CC0066);strokeWidth=4;" parent="542" vertex="1">
                    <mxGeometry x="256" y="281.75" width="40" height="40" as="geometry"/>
                </mxCell>
                <mxCell id="593" value="" style="ellipse;whiteSpace=wrap;html=1;aspect=fixed;fillColor=light-dark(#FA6800,#FFFF33);fontColor=#000000;strokeColor=light-dark(#C73500,#CC0066);strokeWidth=4;" parent="542" vertex="1">
                    <mxGeometry x="311" y="281.75" width="40" height="40" as="geometry"/>
                </mxCell>
                <mxCell id="594" value="" style="ellipse;whiteSpace=wrap;html=1;aspect=fixed;fillColor=light-dark(#FA6800,#FFFF33);fontColor=#000000;strokeColor=light-dark(#C73500,#CC0066);strokeWidth=4;" parent="542" vertex="1">
                    <mxGeometry x="362.75" y="281.75" width="40" height="40" as="geometry"/>
                </mxCell>
                <mxCell id="595" value="" style="ellipse;whiteSpace=wrap;html=1;aspect=fixed;fillColor=light-dark(#FA6800,#FFFF33);fontColor=#000000;strokeColor=light-dark(#C73500,#CC0066);strokeWidth=4;" parent="542" vertex="1">
                    <mxGeometry x="418.5" y="281.75" width="40" height="40" as="geometry"/>
                </mxCell>
                <mxCell id="596" value="" style="ellipse;whiteSpace=wrap;html=1;aspect=fixed;fillColor=light-dark(#FA6800,#FFFF33);fontColor=#000000;strokeColor=light-dark(#C73500,#CC0066);strokeWidth=4;" parent="542" vertex="1">
                    <mxGeometry x="471" y="281.75" width="40" height="40" as="geometry"/>
                </mxCell>
                <mxCell id="597" value="" style="ellipse;whiteSpace=wrap;html=1;aspect=fixed;fillColor=light-dark(#FA6800,#FFFF33);fontColor=#000000;strokeColor=light-dark(#C73500,#CC0066);strokeWidth=4;" parent="542" vertex="1">
                    <mxGeometry x="521" y="281.75" width="40" height="40" as="geometry"/>
                </mxCell>
                <mxCell id="598" value="" style="ellipse;whiteSpace=wrap;html=1;aspect=fixed;fillColor=light-dark(#FA6800,#FFFF33);fontColor=#000000;strokeColor=light-dark(#C73500,#CC0066);strokeWidth=4;" parent="542" vertex="1">
                    <mxGeometry x="571" y="281.75" width="40" height="40" as="geometry"/>
                </mxCell>
                <mxCell id="599" value="" style="ellipse;whiteSpace=wrap;html=1;aspect=fixed;fillColor=light-dark(#FA6800,#FFFF33);fontColor=#000000;strokeColor=light-dark(#C73500,#CC0066);strokeWidth=4;" parent="542" vertex="1">
                    <mxGeometry x="61" y="246.75" width="40" height="40" as="geometry"/>
                </mxCell>
                <mxCell id="600" value="" style="ellipse;whiteSpace=wrap;html=1;aspect=fixed;fillColor=light-dark(#FA6800,#FFFF33);fontColor=#000000;strokeColor=light-dark(#C73500,#CC0066);strokeWidth=4;" parent="542" vertex="1">
                    <mxGeometry x="114" y="247.75" width="40" height="40" as="geometry"/>
                </mxCell>
                <mxCell id="601" value="" style="ellipse;whiteSpace=wrap;html=1;aspect=fixed;fillColor=light-dark(#FA6800,#FFFF33);fontColor=#000000;strokeColor=light-dark(#C73500,#CC0066);strokeWidth=4;" parent="542" vertex="1">
                    <mxGeometry x="171" y="252.75" width="40" height="40" as="geometry"/>
                </mxCell>
                <mxCell id="602" value="" style="ellipse;whiteSpace=wrap;html=1;aspect=fixed;fillColor=light-dark(#FA6800,#FFFF33);fontColor=#000000;strokeColor=light-dark(#C73500,#CC0066);strokeWidth=4;" parent="542" vertex="1">
                    <mxGeometry x="227.75" y="251.75" width="40" height="40" as="geometry"/>
                </mxCell>
                <mxCell id="603" value="" style="ellipse;whiteSpace=wrap;html=1;aspect=fixed;fillColor=light-dark(#FA6800,#FFFF33);fontColor=#000000;strokeColor=light-dark(#C73500,#CC0066);strokeWidth=4;" parent="542" vertex="1">
                    <mxGeometry x="285" y="252.75" width="40" height="40" as="geometry"/>
                </mxCell>
                <mxCell id="604" value="" style="ellipse;whiteSpace=wrap;html=1;aspect=fixed;fillColor=light-dark(#FA6800,#FFFF33);fontColor=#000000;strokeColor=light-dark(#C73500,#CC0066);strokeWidth=4;" parent="542" vertex="1">
                    <mxGeometry x="339" y="250.75" width="40" height="40" as="geometry"/>
                </mxCell>
                <mxCell id="605" value="" style="ellipse;whiteSpace=wrap;html=1;aspect=fixed;fillColor=light-dark(#FA6800,#FFFF33);fontColor=#000000;strokeColor=light-dark(#C73500,#CC0066);strokeWidth=4;" parent="542" vertex="1">
                    <mxGeometry x="391" y="252.75" width="40" height="40" as="geometry"/>
                </mxCell>
                <mxCell id="606" value="" style="ellipse;whiteSpace=wrap;html=1;aspect=fixed;fillColor=light-dark(#FA6800,#FFFF33);fontColor=#000000;strokeColor=light-dark(#C73500,#CC0066);strokeWidth=4;" parent="542" vertex="1">
                    <mxGeometry x="441" y="251.75" width="40" height="40" as="geometry"/>
                </mxCell>
                <mxCell id="607" value="" style="ellipse;whiteSpace=wrap;html=1;aspect=fixed;fillColor=light-dark(#FA6800,#FFFF33);fontColor=#000000;strokeColor=light-dark(#C73500,#CC0066);strokeWidth=4;" parent="542" vertex="1">
                    <mxGeometry x="491" y="251.75" width="40" height="40" as="geometry"/>
                </mxCell>
                <mxCell id="608" value="" style="ellipse;whiteSpace=wrap;html=1;aspect=fixed;fillColor=light-dark(#FA6800,#FFFF33);fontColor=#000000;strokeColor=light-dark(#C73500,#CC0066);strokeWidth=4;" parent="542" vertex="1">
                    <mxGeometry x="541" y="252.75" width="40" height="40" as="geometry"/>
                </mxCell>
                <mxCell id="609" value="" style="ellipse;whiteSpace=wrap;html=1;aspect=fixed;fillColor=light-dark(#FA6800,#FFFF33);fontColor=#000000;strokeColor=light-dark(#C73500,#CC0066);strokeWidth=4;" parent="542" vertex="1">
                    <mxGeometry x="541" y="292.75" width="40" height="40" as="geometry"/>
                </mxCell>
                <mxCell id="610" value="" style="ellipse;whiteSpace=wrap;html=1;aspect=fixed;fillColor=light-dark(#FA6800,#FFFF33);fontColor=#000000;strokeColor=light-dark(#C73500,#CC0066);strokeWidth=4;" parent="542" vertex="1">
                    <mxGeometry x="91" y="217.75" width="40" height="40" as="geometry"/>
                </mxCell>
                <mxCell id="611" value="" style="ellipse;whiteSpace=wrap;html=1;aspect=fixed;fillColor=light-dark(#FA6800,#FFFF33);fontColor=#000000;strokeColor=light-dark(#C73500,#CC0066);strokeWidth=4;" parent="542" vertex="1">
                    <mxGeometry x="144" y="218.75" width="40" height="40" as="geometry"/>
                </mxCell>
                <mxCell id="612" value="" style="ellipse;whiteSpace=wrap;html=1;aspect=fixed;fillColor=light-dark(#FA6800,#FFFF33);fontColor=#000000;strokeColor=light-dark(#C73500,#CC0066);strokeWidth=4;" parent="542" vertex="1">
                    <mxGeometry x="257.75" y="222.75" width="40" height="40" as="geometry"/>
                </mxCell>
                <mxCell id="613" value="" style="ellipse;whiteSpace=wrap;html=1;aspect=fixed;fillColor=light-dark(#FA6800,#FFFF33);fontColor=#000000;strokeColor=light-dark(#C73500,#CC0066);strokeWidth=4;" parent="542" vertex="1">
                    <mxGeometry x="369" y="221.75" width="40" height="40" as="geometry"/>
                </mxCell>
                <mxCell id="614" value="" style="ellipse;whiteSpace=wrap;html=1;aspect=fixed;fillColor=light-dark(#FA6800,#FFFF33);fontColor=#000000;strokeColor=light-dark(#C73500,#CC0066);strokeWidth=4;" parent="542" vertex="1">
                    <mxGeometry x="471" y="222.75" width="40" height="40" as="geometry"/>
                </mxCell>
                <mxCell id="615" value="" style="ellipse;whiteSpace=wrap;html=1;aspect=fixed;fillColor=light-dark(#FA6800,#FFFF33);fontColor=#000000;strokeColor=light-dark(#C73500,#CC0066);strokeWidth=4;" parent="542" vertex="1">
                    <mxGeometry x="521" y="222.75" width="40" height="40" as="geometry"/>
                </mxCell>
                <mxCell id="616" value="" style="ellipse;whiteSpace=wrap;html=1;aspect=fixed;fillColor=light-dark(#FA6800,#FFFF33);fontColor=#000000;strokeColor=light-dark(#C73500,#CC0066);strokeWidth=4;" parent="542" vertex="1">
                    <mxGeometry x="216" y="218.75" width="40" height="40" as="geometry"/>
                </mxCell>
                <mxCell id="617" value="" style="ellipse;whiteSpace=wrap;html=1;aspect=fixed;fillColor=light-dark(#FA6800,#FFFF33);fontColor=#000000;strokeColor=light-dark(#C73500,#CC0066);strokeWidth=4;" parent="542" vertex="1">
                    <mxGeometry x="184" y="217.75" width="40" height="40" as="geometry"/>
                </mxCell>
                <mxCell id="618" value="" style="ellipse;whiteSpace=wrap;html=1;aspect=fixed;fillColor=light-dark(#FA6800,#FFFF33);fontColor=#000000;strokeColor=light-dark(#C73500,#CC0066);strokeWidth=4;" parent="542" vertex="1">
                    <mxGeometry x="299" y="218.75" width="40" height="40" as="geometry"/>
                </mxCell>
                <mxCell id="619" value="" style="ellipse;whiteSpace=wrap;html=1;aspect=fixed;fillColor=light-dark(#FA6800,#FFFF33);fontColor=#000000;strokeColor=light-dark(#C73500,#CC0066);strokeWidth=4;" parent="542" vertex="1">
                    <mxGeometry x="339" y="221.75" width="40" height="40" as="geometry"/>
                </mxCell>
                <mxCell id="620" value="" style="ellipse;whiteSpace=wrap;html=1;aspect=fixed;fillColor=light-dark(#FA6800,#FFFF33);fontColor=#000000;strokeColor=light-dark(#C73500,#CC0066);strokeWidth=4;" parent="542" vertex="1">
                    <mxGeometry x="431" y="217.75" width="40" height="40" as="geometry"/>
                </mxCell>
                <mxCell id="621" value="" style="ellipse;whiteSpace=wrap;html=1;aspect=fixed;fillColor=light-dark(#FA6800,#FFFF33);fontColor=#000000;strokeColor=light-dark(#C73500,#CC0066);strokeWidth=4;" parent="542" vertex="1">
                    <mxGeometry x="495" y="222.75" width="40" height="40" as="geometry"/>
                </mxCell>
                <mxCell id="622" value="" style="ellipse;whiteSpace=wrap;html=1;aspect=fixed;fillColor=light-dark(#FA6800,#FFFF33);fontColor=#000000;strokeColor=light-dark(#C73500,#CC0066);strokeWidth=4;" parent="542" vertex="1">
                    <mxGeometry x="405" y="217.75" width="40" height="40" as="geometry"/>
                </mxCell>
                <mxCell id="623" value="" style="ellipse;whiteSpace=wrap;html=1;aspect=fixed;fillColor=light-dark(#FA6800,#FFFF33);fontColor=#000000;strokeColor=light-dark(#C73500,#CC0066);strokeWidth=4;" parent="542" vertex="1">
                    <mxGeometry x="455" y="217.75" width="40" height="40" as="geometry"/>
                </mxCell>
                <mxCell id="624" value="" style="ellipse;whiteSpace=wrap;html=1;aspect=fixed;fillColor=light-dark(#FA6800,#FFFF33);fontColor=#000000;strokeColor=light-dark(#C73500,#CC0066);strokeWidth=4;" parent="542" vertex="1">
                    <mxGeometry x="6" y="302.75" width="40" height="40" as="geometry"/>
                </mxCell>
                <mxCell id="625" value="" style="ellipse;whiteSpace=wrap;html=1;aspect=fixed;fillColor=light-dark(#FA6800,#FFFF33);fontColor=#000000;strokeColor=light-dark(#C73500,#CC0066);strokeWidth=4;" parent="542" vertex="1">
                    <mxGeometry x="67" y="321.75" width="40" height="40" as="geometry"/>
                </mxCell>
                <mxCell id="626" value="" style="ellipse;whiteSpace=wrap;html=1;aspect=fixed;fillColor=light-dark(#FA6800,#FFFF33);fontColor=#000000;strokeColor=light-dark(#C73500,#CC0066);strokeWidth=4;" parent="542" vertex="1">
                    <mxGeometry x="134" y="325.75" width="40" height="40" as="geometry"/>
                </mxCell>
                <mxCell id="627" value="" style="ellipse;whiteSpace=wrap;html=1;aspect=fixed;fillColor=light-dark(#FA6800,#FFFF33);fontColor=#000000;strokeColor=light-dark(#C73500,#CC0066);strokeWidth=4;" parent="542" vertex="1">
                    <mxGeometry x="191.5" y="325.75" width="40" height="40" as="geometry"/>
                </mxCell>
                <mxCell id="628" value="" style="ellipse;whiteSpace=wrap;html=1;aspect=fixed;fillColor=light-dark(#FA6800,#FFFF33);fontColor=#000000;strokeColor=light-dark(#C73500,#CC0066);strokeWidth=4;" parent="542" vertex="1">
                    <mxGeometry x="249" y="325.75" width="40" height="40" as="geometry"/>
                </mxCell>
                <mxCell id="629" value="" style="ellipse;whiteSpace=wrap;html=1;aspect=fixed;fillColor=light-dark(#FA6800,#FFFF33);fontColor=#000000;strokeColor=light-dark(#C73500,#CC0066);strokeWidth=4;" parent="542" vertex="1">
                    <mxGeometry x="304" y="325.75" width="40" height="40" as="geometry"/>
                </mxCell>
                <mxCell id="630" value="" style="ellipse;whiteSpace=wrap;html=1;aspect=fixed;fillColor=light-dark(#FA6800,#FFFF33);fontColor=#000000;strokeColor=light-dark(#C73500,#CC0066);strokeWidth=4;" parent="542" vertex="1">
                    <mxGeometry x="355.75" y="325.75" width="40" height="40" as="geometry"/>
                </mxCell>
                <mxCell id="631" value="" style="ellipse;whiteSpace=wrap;html=1;aspect=fixed;fillColor=light-dark(#FA6800,#FFFF33);fontColor=#000000;strokeColor=light-dark(#C73500,#CC0066);strokeWidth=4;" parent="542" vertex="1">
                    <mxGeometry x="411.5" y="325.75" width="40" height="40" as="geometry"/>
                </mxCell>
                <mxCell id="632" value="" style="ellipse;whiteSpace=wrap;html=1;aspect=fixed;fillColor=light-dark(#FA6800,#FFFF33);fontColor=#000000;strokeColor=light-dark(#C73500,#CC0066);strokeWidth=4;" parent="542" vertex="1">
                    <mxGeometry x="464" y="325.75" width="40" height="40" as="geometry"/>
                </mxCell>
                <mxCell id="633" value="" style="ellipse;whiteSpace=wrap;html=1;aspect=fixed;fillColor=light-dark(#FA6800,#FFFF33);fontColor=#000000;strokeColor=light-dark(#C73500,#CC0066);strokeWidth=4;" parent="542" vertex="1">
                    <mxGeometry x="514" y="325.75" width="40" height="40" as="geometry"/>
                </mxCell>
                <mxCell id="634" value="" style="ellipse;whiteSpace=wrap;html=1;aspect=fixed;fillColor=light-dark(#FA6800,#FFFF33);fontColor=#000000;strokeColor=light-dark(#C73500,#CC0066);strokeWidth=4;" parent="542" vertex="1">
                    <mxGeometry x="104" y="325.75" width="40" height="40" as="geometry"/>
                </mxCell>
                <mxCell id="635" value="" style="ellipse;whiteSpace=wrap;html=1;aspect=fixed;fillColor=light-dark(#FA6800,#FFFF33);fontColor=#000000;strokeColor=light-dark(#C73500,#CC0066);strokeWidth=4;" parent="542" vertex="1">
                    <mxGeometry x="54" y="290.75" width="40" height="40" as="geometry"/>
                </mxCell>
                <mxCell id="636" value="" style="ellipse;whiteSpace=wrap;html=1;aspect=fixed;fillColor=light-dark(#FA6800,#FFFF33);fontColor=#000000;strokeColor=light-dark(#C73500,#CC0066);strokeWidth=4;" parent="542" vertex="1">
                    <mxGeometry x="107" y="291.75" width="40" height="40" as="geometry"/>
                </mxCell>
                <mxCell id="637" value="" style="ellipse;whiteSpace=wrap;html=1;aspect=fixed;fillColor=light-dark(#FA6800,#FFFF33);fontColor=#000000;strokeColor=light-dark(#C73500,#CC0066);strokeWidth=4;" parent="542" vertex="1">
                    <mxGeometry x="164" y="296.75" width="40" height="40" as="geometry"/>
                </mxCell>
                <mxCell id="638" value="" style="ellipse;whiteSpace=wrap;html=1;aspect=fixed;fillColor=light-dark(#FA6800,#FFFF33);fontColor=#000000;strokeColor=light-dark(#C73500,#CC0066);strokeWidth=4;" parent="542" vertex="1">
                    <mxGeometry x="220.75" y="295.75" width="40" height="40" as="geometry"/>
                </mxCell>
                <mxCell id="639" value="" style="ellipse;whiteSpace=wrap;html=1;aspect=fixed;fillColor=light-dark(#FA6800,#FFFF33);fontColor=#000000;strokeColor=light-dark(#C73500,#CC0066);strokeWidth=4;" parent="542" vertex="1">
                    <mxGeometry x="278" y="296.75" width="40" height="40" as="geometry"/>
                </mxCell>
                <mxCell id="640" value="" style="ellipse;whiteSpace=wrap;html=1;aspect=fixed;fillColor=light-dark(#FA6800,#FFFF33);fontColor=#000000;strokeColor=light-dark(#C73500,#CC0066);strokeWidth=4;" parent="542" vertex="1">
                    <mxGeometry x="332" y="294.75" width="40" height="40" as="geometry"/>
                </mxCell>
                <mxCell id="641" value="" style="ellipse;whiteSpace=wrap;html=1;aspect=fixed;fillColor=light-dark(#FA6800,#FFFF33);fontColor=#000000;strokeColor=light-dark(#C73500,#CC0066);strokeWidth=4;" parent="542" vertex="1">
                    <mxGeometry x="384" y="296.75" width="40" height="40" as="geometry"/>
                </mxCell>
                <mxCell id="642" value="" style="ellipse;whiteSpace=wrap;html=1;aspect=fixed;fillColor=light-dark(#FA6800,#FFFF33);fontColor=#000000;strokeColor=light-dark(#C73500,#CC0066);strokeWidth=4;" parent="542" vertex="1">
                    <mxGeometry x="434" y="295.75" width="40" height="40" as="geometry"/>
                </mxCell>
                <mxCell id="643" value="" style="ellipse;whiteSpace=wrap;html=1;aspect=fixed;fillColor=light-dark(#FA6800,#FFFF33);fontColor=#000000;strokeColor=light-dark(#C73500,#CC0066);strokeWidth=4;" parent="542" vertex="1">
                    <mxGeometry x="484" y="295.75" width="40" height="40" as="geometry"/>
                </mxCell>
                <mxCell id="644" value="" style="ellipse;whiteSpace=wrap;html=1;aspect=fixed;fillColor=light-dark(#FA6800,#FFFF33);fontColor=#000000;strokeColor=light-dark(#C73500,#CC0066);strokeWidth=4;" parent="542" vertex="1">
                    <mxGeometry x="534" y="296.75" width="40" height="40" as="geometry"/>
                </mxCell>
                <mxCell id="645" value="" style="ellipse;whiteSpace=wrap;html=1;aspect=fixed;fillColor=light-dark(#FA6800,#FFFF33);fontColor=#000000;strokeColor=light-dark(#C73500,#CC0066);strokeWidth=4;" parent="542" vertex="1">
                    <mxGeometry x="591" y="296.75" width="40" height="40" as="geometry"/>
                </mxCell>
                <mxCell id="646" value="" style="ellipse;whiteSpace=wrap;html=1;aspect=fixed;fillColor=light-dark(#FA6800,#FFFF33);fontColor=#000000;strokeColor=light-dark(#C73500,#CC0066);strokeWidth=4;" parent="542" vertex="1">
                    <mxGeometry x="84" y="261.75" width="40" height="40" as="geometry"/>
                </mxCell>
                <mxCell id="647" value="" style="ellipse;whiteSpace=wrap;html=1;aspect=fixed;fillColor=light-dark(#FA6800,#FFFF33);fontColor=#000000;strokeColor=light-dark(#C73500,#CC0066);strokeWidth=4;" parent="542" vertex="1">
                    <mxGeometry x="137" y="262.75" width="40" height="40" as="geometry"/>
                </mxCell>
                <mxCell id="648" value="" style="ellipse;whiteSpace=wrap;html=1;aspect=fixed;fillColor=light-dark(#FA6800,#FFFF33);fontColor=#000000;strokeColor=light-dark(#C73500,#CC0066);strokeWidth=4;" parent="542" vertex="1">
                    <mxGeometry x="250.75" y="266.75" width="40" height="40" as="geometry"/>
                </mxCell>
                <mxCell id="649" value="" style="ellipse;whiteSpace=wrap;html=1;aspect=fixed;fillColor=light-dark(#FA6800,#FFFF33);fontColor=#000000;strokeColor=light-dark(#C73500,#CC0066);strokeWidth=4;" parent="542" vertex="1">
                    <mxGeometry x="362" y="265.75" width="40" height="40" as="geometry"/>
                </mxCell>
                <mxCell id="650" value="" style="ellipse;whiteSpace=wrap;html=1;aspect=fixed;fillColor=light-dark(#FA6800,#FFFF33);fontColor=#000000;strokeColor=light-dark(#C73500,#CC0066);strokeWidth=4;" parent="542" vertex="1">
                    <mxGeometry x="464" y="266.75" width="40" height="40" as="geometry"/>
                </mxCell>
                <mxCell id="651" value="" style="ellipse;whiteSpace=wrap;html=1;aspect=fixed;fillColor=light-dark(#FA6800,#FFFF33);fontColor=#000000;strokeColor=light-dark(#C73500,#CC0066);strokeWidth=4;" parent="542" vertex="1">
                    <mxGeometry x="514" y="266.75" width="40" height="40" as="geometry"/>
                </mxCell>
                <mxCell id="652" value="" style="ellipse;whiteSpace=wrap;html=1;aspect=fixed;fillColor=light-dark(#FA6800,#FFFF33);fontColor=#000000;strokeColor=light-dark(#C73500,#CC0066);strokeWidth=4;" parent="542" vertex="1">
                    <mxGeometry x="209" y="262.75" width="40" height="40" as="geometry"/>
                </mxCell>
                <mxCell id="653" value="" style="ellipse;whiteSpace=wrap;html=1;aspect=fixed;fillColor=light-dark(#FA6800,#FFFF33);fontColor=#000000;strokeColor=light-dark(#C73500,#CC0066);strokeWidth=4;" parent="542" vertex="1">
                    <mxGeometry x="177" y="261.75" width="40" height="40" as="geometry"/>
                </mxCell>
                <mxCell id="654" value="" style="ellipse;whiteSpace=wrap;html=1;aspect=fixed;fillColor=light-dark(#FA6800,#FFFF33);fontColor=#000000;strokeColor=light-dark(#C73500,#CC0066);strokeWidth=4;" parent="542" vertex="1">
                    <mxGeometry x="292" y="262.75" width="40" height="40" as="geometry"/>
                </mxCell>
                <mxCell id="655" value="" style="ellipse;whiteSpace=wrap;html=1;aspect=fixed;fillColor=light-dark(#FA6800,#FFFF33);fontColor=#000000;strokeColor=light-dark(#C73500,#CC0066);strokeWidth=4;" parent="542" vertex="1">
                    <mxGeometry x="332" y="265.75" width="40" height="40" as="geometry"/>
                </mxCell>
                <mxCell id="656" value="" style="ellipse;whiteSpace=wrap;html=1;aspect=fixed;fillColor=light-dark(#FA6800,#FFFF33);fontColor=#000000;strokeColor=light-dark(#C73500,#CC0066);strokeWidth=4;" parent="542" vertex="1">
                    <mxGeometry x="424" y="261.75" width="40" height="40" as="geometry"/>
                </mxCell>
                <mxCell id="657" value="" style="ellipse;whiteSpace=wrap;html=1;aspect=fixed;fillColor=light-dark(#FA6800,#FFFF33);fontColor=#000000;strokeColor=light-dark(#C73500,#CC0066);strokeWidth=4;" parent="542" vertex="1">
                    <mxGeometry x="488" y="266.75" width="40" height="40" as="geometry"/>
                </mxCell>
                <mxCell id="658" value="" style="ellipse;whiteSpace=wrap;html=1;aspect=fixed;fillColor=light-dark(#FA6800,#FFFF33);fontColor=#000000;strokeColor=light-dark(#C73500,#CC0066);strokeWidth=4;" parent="542" vertex="1">
                    <mxGeometry x="398" y="261.75" width="40" height="40" as="geometry"/>
                </mxCell>
                <mxCell id="659" value="" style="ellipse;whiteSpace=wrap;html=1;aspect=fixed;fillColor=light-dark(#FA6800,#FFFF33);fontColor=#000000;strokeColor=light-dark(#C73500,#CC0066);strokeWidth=4;" parent="542" vertex="1">
                    <mxGeometry x="448" y="261.75" width="40" height="40" as="geometry"/>
                </mxCell>
                <mxCell id="660" value="" style="ellipse;whiteSpace=wrap;html=1;aspect=fixed;fillColor=light-dark(#FA6800,#FFFF33);fontColor=#000000;strokeColor=light-dark(#C73500,#CC0066);strokeWidth=4;" parent="542" vertex="1">
                    <mxGeometry x="141" y="182.75" width="40" height="40" as="geometry"/>
                </mxCell>
                <mxCell id="661" value="" style="ellipse;whiteSpace=wrap;html=1;aspect=fixed;fillColor=light-dark(#FA6800,#FFFF33);fontColor=#000000;strokeColor=light-dark(#C73500,#CC0066);strokeWidth=4;" parent="542" vertex="1">
                    <mxGeometry x="248" y="182.75" width="40" height="40" as="geometry"/>
                </mxCell>
                <mxCell id="662" value="" style="ellipse;whiteSpace=wrap;html=1;aspect=fixed;fillColor=light-dark(#FA6800,#FFFF33);fontColor=#000000;strokeColor=light-dark(#C73500,#CC0066);strokeWidth=4;" parent="542" vertex="1">
                    <mxGeometry x="359.25" y="181.75" width="40" height="40" as="geometry"/>
                </mxCell>
                <mxCell id="663" value="" style="ellipse;whiteSpace=wrap;html=1;aspect=fixed;fillColor=light-dark(#FA6800,#FFFF33);fontColor=#000000;strokeColor=light-dark(#C73500,#CC0066);strokeWidth=4;" parent="542" vertex="1">
                    <mxGeometry x="461.25" y="182.75" width="40" height="40" as="geometry"/>
                </mxCell>
                <mxCell id="664" value="" style="ellipse;whiteSpace=wrap;html=1;aspect=fixed;fillColor=light-dark(#FA6800,#FFFF33);fontColor=#000000;strokeColor=light-dark(#C73500,#CC0066);strokeWidth=4;" parent="542" vertex="1">
                    <mxGeometry x="206.25" y="178.75" width="40" height="40" as="geometry"/>
                </mxCell>
                <mxCell id="665" value="" style="ellipse;whiteSpace=wrap;html=1;aspect=fixed;fillColor=light-dark(#FA6800,#FFFF33);fontColor=#000000;strokeColor=light-dark(#C73500,#CC0066);strokeWidth=4;" parent="542" vertex="1">
                    <mxGeometry x="174.25" y="177.75" width="40" height="40" as="geometry"/>
                </mxCell>
                <mxCell id="666" value="" style="ellipse;whiteSpace=wrap;html=1;aspect=fixed;fillColor=light-dark(#FA6800,#FFFF33);fontColor=#000000;strokeColor=light-dark(#C73500,#CC0066);strokeWidth=4;" parent="542" vertex="1">
                    <mxGeometry x="289.25" y="178.75" width="40" height="40" as="geometry"/>
                </mxCell>
                <mxCell id="667" value="" style="ellipse;whiteSpace=wrap;html=1;aspect=fixed;fillColor=light-dark(#FA6800,#FFFF33);fontColor=#000000;strokeColor=light-dark(#C73500,#CC0066);strokeWidth=4;" parent="542" vertex="1">
                    <mxGeometry x="329.25" y="181.75" width="40" height="40" as="geometry"/>
                </mxCell>
                <mxCell id="668" value="" style="ellipse;whiteSpace=wrap;html=1;aspect=fixed;fillColor=light-dark(#FA6800,#FFFF33);fontColor=#000000;strokeColor=light-dark(#C73500,#CC0066);strokeWidth=4;" parent="542" vertex="1">
                    <mxGeometry x="421.25" y="177.75" width="40" height="40" as="geometry"/>
                </mxCell>
                <mxCell id="669" value="" style="ellipse;whiteSpace=wrap;html=1;aspect=fixed;fillColor=light-dark(#FA6800,#FFFF33);fontColor=#000000;strokeColor=light-dark(#C73500,#CC0066);strokeWidth=4;" parent="542" vertex="1">
                    <mxGeometry x="395.25" y="177.75" width="40" height="40" as="geometry"/>
                </mxCell>
                <mxCell id="670" value="" style="ellipse;whiteSpace=wrap;html=1;aspect=fixed;fillColor=light-dark(#FA6800,#FFFF33);fontColor=#000000;strokeColor=light-dark(#C73500,#CC0066);strokeWidth=4;" parent="542" vertex="1">
                    <mxGeometry x="445.25" y="177.75" width="40" height="40" as="geometry"/>
                </mxCell>
                <mxCell id="671" value="" style="ellipse;whiteSpace=wrap;html=1;aspect=fixed;fillColor=light-dark(#FA6800,#FFFF33);fontColor=#000000;strokeColor=light-dark(#C73500,#CC0066);strokeWidth=4;" parent="542" vertex="1">
                    <mxGeometry x="123.5" y="197.75" width="40" height="40" as="geometry"/>
                </mxCell>
                <mxCell id="672" value="" style="ellipse;whiteSpace=wrap;html=1;aspect=fixed;fillColor=light-dark(#FA6800,#FFFF33);fontColor=#000000;strokeColor=light-dark(#C73500,#CC0066);strokeWidth=4;" parent="542" vertex="1">
                    <mxGeometry x="244" y="155" width="40" height="40" as="geometry"/>
                </mxCell>
                <mxCell id="673" value="" style="ellipse;whiteSpace=wrap;html=1;aspect=fixed;fillColor=light-dark(#FA6800,#FFFF33);fontColor=#000000;strokeColor=light-dark(#C73500,#CC0066);strokeWidth=4;" parent="542" vertex="1">
                    <mxGeometry x="355.25" y="154" width="40" height="40" as="geometry"/>
                </mxCell>
                <mxCell id="674" value="" style="ellipse;whiteSpace=wrap;html=1;aspect=fixed;fillColor=light-dark(#FA6800,#FFFF33);fontColor=#000000;strokeColor=light-dark(#C73500,#CC0066);strokeWidth=4;" parent="542" vertex="1">
                    <mxGeometry x="202.25" y="151" width="40" height="40" as="geometry"/>
                </mxCell>
                <mxCell id="675" value="" style="ellipse;whiteSpace=wrap;html=1;aspect=fixed;fillColor=light-dark(#FA6800,#FFFF33);fontColor=#000000;strokeColor=light-dark(#C73500,#CC0066);strokeWidth=4;" parent="542" vertex="1">
                    <mxGeometry x="170.25" y="150" width="40" height="40" as="geometry"/>
                </mxCell>
                <mxCell id="676" value="" style="ellipse;whiteSpace=wrap;html=1;aspect=fixed;fillColor=light-dark(#FA6800,#FFFF33);fontColor=#000000;strokeColor=light-dark(#C73500,#CC0066);strokeWidth=4;" parent="542" vertex="1">
                    <mxGeometry x="285.25" y="151" width="40" height="40" as="geometry"/>
                </mxCell>
                <mxCell id="677" value="" style="ellipse;whiteSpace=wrap;html=1;aspect=fixed;fillColor=light-dark(#FA6800,#FFFF33);fontColor=#000000;strokeColor=light-dark(#C73500,#CC0066);strokeWidth=4;" parent="542" vertex="1">
                    <mxGeometry x="327" y="154" width="38.25" height="38.25" as="geometry"/>
                </mxCell>
                <mxCell id="678" value="" style="ellipse;whiteSpace=wrap;html=1;aspect=fixed;fillColor=light-dark(#FA6800,#FFFF33);fontColor=#000000;strokeColor=light-dark(#C73500,#CC0066);strokeWidth=4;" parent="542" vertex="1">
                    <mxGeometry x="417.25" y="150" width="40" height="40" as="geometry"/>
                </mxCell>
                <mxCell id="679" value="" style="ellipse;whiteSpace=wrap;html=1;aspect=fixed;fillColor=light-dark(#FA6800,#FFFF33);fontColor=#000000;strokeColor=light-dark(#C73500,#CC0066);strokeWidth=4;" parent="542" vertex="1">
                    <mxGeometry x="391.25" y="150" width="40" height="40" as="geometry"/>
                </mxCell>
                <mxCell id="680" value="" style="ellipse;whiteSpace=wrap;html=1;aspect=fixed;fillColor=light-dark(#FA6800,#FFFF33);fontColor=#000000;strokeColor=light-dark(#C73500,#CC0066);strokeWidth=4;" parent="542" vertex="1">
                    <mxGeometry x="441.25" y="150" width="40" height="40" as="geometry"/>
                </mxCell>
                <mxCell id="681" value="" style="ellipse;whiteSpace=wrap;html=1;aspect=fixed;fillColor=light-dark(#FA6800,#FFFF33);fontColor=#000000;strokeColor=light-dark(#C73500,#CC0066);strokeWidth=4;" parent="542" vertex="1">
                    <mxGeometry x="191.5" y="115" width="40" height="40" as="geometry"/>
                </mxCell>
                <mxCell id="682" value="" style="ellipse;whiteSpace=wrap;html=1;aspect=fixed;fillColor=light-dark(#FA6800,#FFFF33);fontColor=#000000;strokeColor=light-dark(#C73500,#CC0066);strokeWidth=4;" parent="542" vertex="1">
                    <mxGeometry x="298.5" y="115" width="40" height="40" as="geometry"/>
                </mxCell>
                <mxCell id="683" value="" style="ellipse;whiteSpace=wrap;html=1;aspect=fixed;fillColor=light-dark(#FA6800,#FFFF33);fontColor=#000000;strokeColor=light-dark(#C73500,#CC0066);strokeWidth=4;" parent="542" vertex="1">
                    <mxGeometry x="409.75" y="114" width="40" height="40" as="geometry"/>
                </mxCell>
                <mxCell id="684" value="" style="ellipse;whiteSpace=wrap;html=1;aspect=fixed;fillColor=light-dark(#FA6800,#FFFF33);fontColor=#000000;strokeColor=light-dark(#C73500,#CC0066);strokeWidth=4;" parent="542" vertex="1">
                    <mxGeometry x="256.75" y="111" width="40" height="40" as="geometry"/>
                </mxCell>
                <mxCell id="685" value="" style="ellipse;whiteSpace=wrap;html=1;aspect=fixed;fillColor=light-dark(#FA6800,#FFFF33);fontColor=#000000;strokeColor=light-dark(#C73500,#CC0066);strokeWidth=4;" parent="542" vertex="1">
                    <mxGeometry x="224.75" y="110" width="40" height="40" as="geometry"/>
                </mxCell>
                <mxCell id="686" value="" style="ellipse;whiteSpace=wrap;html=1;aspect=fixed;fillColor=light-dark(#FA6800,#FFFF33);fontColor=#000000;strokeColor=light-dark(#C73500,#CC0066);strokeWidth=4;" parent="542" vertex="1">
                    <mxGeometry x="339.75" y="111" width="40" height="40" as="geometry"/>
                </mxCell>
                <mxCell id="687" value="" style="ellipse;whiteSpace=wrap;html=1;aspect=fixed;fillColor=light-dark(#FA6800,#FFFF33);fontColor=#000000;strokeColor=light-dark(#C73500,#CC0066);strokeWidth=4;" parent="542" vertex="1">
                    <mxGeometry x="379.75" y="114" width="40" height="40" as="geometry"/>
                </mxCell>
                <mxCell id="688" value="" style="ellipse;whiteSpace=wrap;html=1;aspect=fixed;fillColor=light-dark(#FA6800,#FFFF33);fontColor=#000000;strokeColor=light-dark(#C73500,#CC0066);strokeWidth=4;" parent="542" vertex="1">
                    <mxGeometry x="212.75" y="85" width="40" height="40" as="geometry"/>
                </mxCell>
                <mxCell id="689" value="" style="ellipse;whiteSpace=wrap;html=1;aspect=fixed;fillColor=light-dark(#FA6800,#FFFF33);fontColor=#000000;strokeColor=light-dark(#C73500,#CC0066);strokeWidth=4;" parent="542" vertex="1">
                    <mxGeometry x="319.75" y="85" width="40" height="40" as="geometry"/>
                </mxCell>
                <mxCell id="690" value="" style="ellipse;whiteSpace=wrap;html=1;aspect=fixed;fillColor=light-dark(#FA6800,#FFFF33);fontColor=#000000;strokeColor=light-dark(#C73500,#CC0066);strokeWidth=4;" parent="542" vertex="1">
                    <mxGeometry x="278" y="81" width="40" height="40" as="geometry"/>
                </mxCell>
                <mxCell id="691" value="" style="ellipse;whiteSpace=wrap;html=1;aspect=fixed;fillColor=light-dark(#FA6800,#FFFF33);fontColor=#000000;strokeColor=light-dark(#C73500,#CC0066);strokeWidth=4;" parent="542" vertex="1">
                    <mxGeometry x="246" y="80" width="40" height="40" as="geometry"/>
                </mxCell>
                <mxCell id="692" value="" style="ellipse;whiteSpace=wrap;html=1;aspect=fixed;fillColor=light-dark(#FA6800,#FFFF33);fontColor=#000000;strokeColor=light-dark(#C73500,#CC0066);strokeWidth=4;" parent="542" vertex="1">
                    <mxGeometry x="361" y="81" width="40" height="40" as="geometry"/>
                </mxCell>
                <mxCell id="693" value="" style="ellipse;whiteSpace=wrap;html=1;aspect=fixed;fillColor=light-dark(#FA6800,#FFFF33);fontColor=#000000;strokeColor=light-dark(#C73500,#CC0066);strokeWidth=4;" parent="542" vertex="1">
                    <mxGeometry x="401" y="84" width="40" height="40" as="geometry"/>
                </mxCell>
                <mxCell id="694" value="" style="ellipse;whiteSpace=wrap;html=1;aspect=fixed;fillColor=light-dark(#FA6800,#FFFF33);fontColor=#000000;strokeColor=light-dark(#C73500,#CC0066);strokeWidth=4;" parent="542" vertex="1">
                    <mxGeometry x="321.75" y="55" width="40" height="40" as="geometry"/>
                </mxCell>
                <mxCell id="695" value="" style="ellipse;whiteSpace=wrap;html=1;aspect=fixed;fillColor=light-dark(#FA6800,#FFFF33);fontColor=#000000;strokeColor=light-dark(#C73500,#CC0066);strokeWidth=4;" parent="542" vertex="1">
                    <mxGeometry x="280" y="51" width="40" height="40" as="geometry"/>
                </mxCell>
                <mxCell id="696" value="" style="ellipse;whiteSpace=wrap;html=1;aspect=fixed;fillColor=light-dark(#FA6800,#FFFF33);fontColor=#000000;strokeColor=light-dark(#C73500,#CC0066);strokeWidth=4;" parent="542" vertex="1">
                    <mxGeometry x="248" y="50" width="40" height="40" as="geometry"/>
                </mxCell>
                <mxCell id="697" value="" style="ellipse;whiteSpace=wrap;html=1;aspect=fixed;fillColor=light-dark(#FA6800,#FFFF33);fontColor=#000000;strokeColor=light-dark(#C73500,#CC0066);strokeWidth=4;" parent="542" vertex="1">
                    <mxGeometry x="363" y="51" width="40" height="40" as="geometry"/>
                </mxCell>
                <mxCell id="698" value="" style="ellipse;whiteSpace=wrap;html=1;aspect=fixed;fillColor=light-dark(#FA6800,#FFFF33);fontColor=#000000;strokeColor=light-dark(#C73500,#CC0066);strokeWidth=4;" parent="542" vertex="1">
                    <mxGeometry x="322.75" y="25" width="40" height="40" as="geometry"/>
                </mxCell>
                <mxCell id="699" value="" style="ellipse;whiteSpace=wrap;html=1;aspect=fixed;fillColor=light-dark(#FA6800,#FFFF33);fontColor=#000000;strokeColor=light-dark(#C73500,#CC0066);strokeWidth=4;" parent="542" vertex="1">
                    <mxGeometry x="281" y="21" width="40" height="40" as="geometry"/>
                </mxCell>
                <mxCell id="700" value="" style="ellipse;whiteSpace=wrap;html=1;aspect=fixed;fillColor=light-dark(#FA6800,#FFFF33);fontColor=#000000;strokeColor=light-dark(#C73500,#CC0066);strokeWidth=4;" parent="542" vertex="1">
                    <mxGeometry x="306" width="40" height="40" as="geometry"/>
                </mxCell>
                <mxCell id="701" value="" style="ellipse;whiteSpace=wrap;html=1;aspect=fixed;fillColor=light-dark(#FA6800,#FFFF33);fontColor=#000000;strokeColor=light-dark(#C73500,#CC0066);strokeWidth=4;" parent="542" vertex="1">
                    <mxGeometry x="153.75" y="167.38" width="40" height="40" as="geometry"/>
                </mxCell>
                <mxCell id="702" value="" style="ellipse;whiteSpace=wrap;html=1;aspect=fixed;fillColor=light-dark(#FA6800,#FFFF33);fontColor=#000000;strokeColor=light-dark(#C73500,#CC0066);strokeWidth=4;" parent="542" vertex="1">
                    <mxGeometry x="260.75" y="167.38" width="40" height="40" as="geometry"/>
                </mxCell>
                <mxCell id="703" value="" style="ellipse;whiteSpace=wrap;html=1;aspect=fixed;fillColor=light-dark(#FA6800,#FFFF33);fontColor=#000000;strokeColor=light-dark(#C73500,#CC0066);strokeWidth=4;" parent="542" vertex="1">
                    <mxGeometry x="372" y="166.38" width="40" height="40" as="geometry"/>
                </mxCell>
                <mxCell id="704" value="" style="ellipse;whiteSpace=wrap;html=1;aspect=fixed;fillColor=light-dark(#FA6800,#FFFF33);fontColor=#000000;strokeColor=light-dark(#C73500,#CC0066);strokeWidth=4;" parent="542" vertex="1">
                    <mxGeometry x="219" y="163.38" width="40" height="40" as="geometry"/>
                </mxCell>
                <mxCell id="705" value="" style="ellipse;whiteSpace=wrap;html=1;aspect=fixed;fillColor=light-dark(#FA6800,#FFFF33);fontColor=#000000;strokeColor=light-dark(#C73500,#CC0066);strokeWidth=4;" parent="542" vertex="1">
                    <mxGeometry x="187" y="162.38" width="40" height="40" as="geometry"/>
                </mxCell>
                <mxCell id="706" value="" style="ellipse;whiteSpace=wrap;html=1;aspect=fixed;fillColor=light-dark(#FA6800,#FFFF33);fontColor=#000000;strokeColor=light-dark(#C73500,#CC0066);strokeWidth=4;" parent="542" vertex="1">
                    <mxGeometry x="302" y="163.38" width="40" height="40" as="geometry"/>
                </mxCell>
                <mxCell id="707" value="" style="ellipse;whiteSpace=wrap;html=1;aspect=fixed;fillColor=light-dark(#FA6800,#FFFF33);fontColor=#000000;strokeColor=light-dark(#C73500,#CC0066);strokeWidth=4;" parent="542" vertex="1">
                    <mxGeometry x="342" y="166.38" width="40" height="40" as="geometry"/>
                </mxCell>
                <mxCell id="708" value="" style="ellipse;whiteSpace=wrap;html=1;aspect=fixed;fillColor=light-dark(#FA6800,#FFFF33);fontColor=#000000;strokeColor=light-dark(#C73500,#CC0066);strokeWidth=4;" parent="542" vertex="1">
                    <mxGeometry x="434" y="162.38" width="40" height="40" as="geometry"/>
                </mxCell>
                <mxCell id="709" value="" style="ellipse;whiteSpace=wrap;html=1;aspect=fixed;fillColor=light-dark(#FA6800,#FFFF33);fontColor=#000000;strokeColor=light-dark(#C73500,#CC0066);strokeWidth=4;" parent="542" vertex="1">
                    <mxGeometry x="408" y="162.38" width="40" height="40" as="geometry"/>
                </mxCell>
                <mxCell id="710" value="" style="ellipse;whiteSpace=wrap;html=1;aspect=fixed;fillColor=light-dark(#FA6800,#FFFF33);fontColor=#000000;strokeColor=light-dark(#C73500,#CC0066);strokeWidth=4;" parent="542" vertex="1">
                    <mxGeometry x="458" y="162.38" width="40" height="40" as="geometry"/>
                </mxCell>
                <mxCell id="711" value="" style="ellipse;whiteSpace=wrap;html=1;aspect=fixed;fillColor=light-dark(#FA6800,#FFFF33);fontColor=#000000;strokeColor=light-dark(#C73500,#CC0066);strokeWidth=4;" parent="542" vertex="1">
                    <mxGeometry x="256.75" y="139.63" width="40" height="40" as="geometry"/>
                </mxCell>
                <mxCell id="712" value="" style="ellipse;whiteSpace=wrap;html=1;aspect=fixed;fillColor=light-dark(#FA6800,#FFFF33);fontColor=#000000;strokeColor=light-dark(#C73500,#CC0066);strokeWidth=4;" parent="542" vertex="1">
                    <mxGeometry x="368" y="138.63" width="40" height="40" as="geometry"/>
                </mxCell>
                <mxCell id="713" value="" style="ellipse;whiteSpace=wrap;html=1;aspect=fixed;fillColor=light-dark(#FA6800,#FFFF33);fontColor=#000000;strokeColor=light-dark(#C73500,#CC0066);strokeWidth=4;" parent="542" vertex="1">
                    <mxGeometry x="215" y="135.63" width="40" height="40" as="geometry"/>
                </mxCell>
                <mxCell id="714" value="" style="ellipse;whiteSpace=wrap;html=1;aspect=fixed;fillColor=light-dark(#FA6800,#FFFF33);fontColor=#000000;strokeColor=light-dark(#C73500,#CC0066);strokeWidth=4;" parent="542" vertex="1">
                    <mxGeometry x="183" y="134.63" width="40" height="40" as="geometry"/>
                </mxCell>
                <mxCell id="715" value="" style="ellipse;whiteSpace=wrap;html=1;aspect=fixed;fillColor=light-dark(#FA6800,#FFFF33);fontColor=#000000;strokeColor=light-dark(#C73500,#CC0066);strokeWidth=4;" parent="542" vertex="1">
                    <mxGeometry x="298" y="135.63" width="40" height="40" as="geometry"/>
                </mxCell>
                <mxCell id="716" value="" style="ellipse;whiteSpace=wrap;html=1;aspect=fixed;fillColor=light-dark(#FA6800,#FFFF33);fontColor=#000000;strokeColor=light-dark(#C73500,#CC0066);strokeWidth=4;" parent="542" vertex="1">
                    <mxGeometry x="339.75" y="138.63" width="38.25" height="38.25" as="geometry"/>
                </mxCell>
                <mxCell id="717" value="" style="ellipse;whiteSpace=wrap;html=1;aspect=fixed;fillColor=light-dark(#FA6800,#FFFF33);fontColor=#000000;strokeColor=light-dark(#C73500,#CC0066);strokeWidth=4;" parent="542" vertex="1">
                    <mxGeometry x="430" y="134.63" width="40" height="40" as="geometry"/>
                </mxCell>
                <mxCell id="718" value="" style="ellipse;whiteSpace=wrap;html=1;aspect=fixed;fillColor=light-dark(#FA6800,#FFFF33);fontColor=#000000;strokeColor=light-dark(#C73500,#CC0066);strokeWidth=4;" parent="542" vertex="1">
                    <mxGeometry x="404" y="134.63" width="40" height="40" as="geometry"/>
                </mxCell>
                <mxCell id="719" value="" style="ellipse;whiteSpace=wrap;html=1;aspect=fixed;fillColor=light-dark(#FA6800,#FFFF33);fontColor=#000000;strokeColor=light-dark(#C73500,#CC0066);strokeWidth=4;" parent="542" vertex="1">
                    <mxGeometry x="150" y="192.75" width="40" height="40" as="geometry"/>
                </mxCell>
                <mxCell id="720" value="" style="ellipse;whiteSpace=wrap;html=1;aspect=fixed;fillColor=light-dark(#FA6800,#FFFF33);fontColor=#000000;strokeColor=light-dark(#C73500,#CC0066);strokeWidth=4;" parent="542" vertex="1">
                    <mxGeometry x="257" y="192.75" width="40" height="40" as="geometry"/>
                </mxCell>
                <mxCell id="721" value="" style="ellipse;whiteSpace=wrap;html=1;aspect=fixed;fillColor=light-dark(#FA6800,#FFFF33);fontColor=#000000;strokeColor=light-dark(#C73500,#CC0066);strokeWidth=4;" parent="542" vertex="1">
                    <mxGeometry x="368.25" y="191.75" width="40" height="40" as="geometry"/>
                </mxCell>
                <mxCell id="722" value="" style="ellipse;whiteSpace=wrap;html=1;aspect=fixed;fillColor=light-dark(#FA6800,#FFFF33);fontColor=#000000;strokeColor=light-dark(#C73500,#CC0066);strokeWidth=4;" parent="542" vertex="1">
                    <mxGeometry x="470.25" y="192.75" width="40" height="40" as="geometry"/>
                </mxCell>
                <mxCell id="723" value="" style="ellipse;whiteSpace=wrap;html=1;aspect=fixed;fillColor=light-dark(#FA6800,#FFFF33);fontColor=#000000;strokeColor=light-dark(#C73500,#CC0066);strokeWidth=4;" parent="542" vertex="1">
                    <mxGeometry x="215.25" y="188.75" width="40" height="40" as="geometry"/>
                </mxCell>
                <mxCell id="724" value="" style="ellipse;whiteSpace=wrap;html=1;aspect=fixed;fillColor=light-dark(#FA6800,#FFFF33);fontColor=#000000;strokeColor=light-dark(#C73500,#CC0066);strokeWidth=4;" parent="542" vertex="1">
                    <mxGeometry x="183.25" y="187.75" width="40" height="40" as="geometry"/>
                </mxCell>
                <mxCell id="725" value="" style="ellipse;whiteSpace=wrap;html=1;aspect=fixed;fillColor=light-dark(#FA6800,#FFFF33);fontColor=#000000;strokeColor=light-dark(#C73500,#CC0066);strokeWidth=4;" parent="542" vertex="1">
                    <mxGeometry x="298.25" y="188.75" width="40" height="40" as="geometry"/>
                </mxCell>
                <mxCell id="726" value="" style="ellipse;whiteSpace=wrap;html=1;aspect=fixed;fillColor=light-dark(#FA6800,#FFFF33);fontColor=#000000;strokeColor=light-dark(#C73500,#CC0066);strokeWidth=4;" parent="542" vertex="1">
                    <mxGeometry x="338.25" y="191.75" width="40" height="40" as="geometry"/>
                </mxCell>
                <mxCell id="727" value="" style="ellipse;whiteSpace=wrap;html=1;aspect=fixed;fillColor=light-dark(#FA6800,#FFFF33);fontColor=#000000;strokeColor=light-dark(#C73500,#CC0066);strokeWidth=4;" parent="542" vertex="1">
                    <mxGeometry x="430.25" y="187.75" width="40" height="40" as="geometry"/>
                </mxCell>
                <mxCell id="728" value="" style="ellipse;whiteSpace=wrap;html=1;aspect=fixed;fillColor=light-dark(#FA6800,#FFFF33);fontColor=#000000;strokeColor=light-dark(#C73500,#CC0066);strokeWidth=4;" parent="542" vertex="1">
                    <mxGeometry x="404.25" y="187.75" width="40" height="40" as="geometry"/>
                </mxCell>
                <mxCell id="729" value="" style="ellipse;whiteSpace=wrap;html=1;aspect=fixed;fillColor=light-dark(#FA6800,#FFFF33);fontColor=#000000;strokeColor=light-dark(#C73500,#CC0066);strokeWidth=4;" parent="542" vertex="1">
                    <mxGeometry x="454.25" y="187.75" width="40" height="40" as="geometry"/>
                </mxCell>
                <mxCell id="730" value="" style="ellipse;whiteSpace=wrap;html=1;aspect=fixed;fillColor=light-dark(#FA6800,#FFFF33);fontColor=#000000;strokeColor=light-dark(#C73500,#CC0066);strokeWidth=4;" parent="542" vertex="1">
                    <mxGeometry x="162.75" y="177.38" width="40" height="40" as="geometry"/>
                </mxCell>
                <mxCell id="731" value="" style="ellipse;whiteSpace=wrap;html=1;aspect=fixed;fillColor=light-dark(#FA6800,#FFFF33);fontColor=#000000;strokeColor=light-dark(#C73500,#CC0066);strokeWidth=4;" parent="542" vertex="1">
                    <mxGeometry x="269.75" y="177.38" width="40" height="40" as="geometry"/>
                </mxCell>
                <mxCell id="732" value="" style="ellipse;whiteSpace=wrap;html=1;aspect=fixed;fillColor=light-dark(#FA6800,#FFFF33);fontColor=#000000;strokeColor=light-dark(#C73500,#CC0066);strokeWidth=4;" parent="542" vertex="1">
                    <mxGeometry x="381" y="176.38" width="40" height="40" as="geometry"/>
                </mxCell>
                <mxCell id="733" value="" style="ellipse;whiteSpace=wrap;html=1;aspect=fixed;fillColor=light-dark(#FA6800,#FFFF33);fontColor=#000000;strokeColor=light-dark(#C73500,#CC0066);strokeWidth=4;" parent="542" vertex="1">
                    <mxGeometry x="228" y="173.38" width="40" height="40" as="geometry"/>
                </mxCell>
                <mxCell id="734" value="" style="ellipse;whiteSpace=wrap;html=1;aspect=fixed;fillColor=light-dark(#FA6800,#FFFF33);fontColor=#000000;strokeColor=light-dark(#C73500,#CC0066);strokeWidth=4;" parent="542" vertex="1">
                    <mxGeometry x="196" y="172.38" width="40" height="40" as="geometry"/>
                </mxCell>
                <mxCell id="735" value="" style="ellipse;whiteSpace=wrap;html=1;aspect=fixed;fillColor=light-dark(#FA6800,#FFFF33);fontColor=#000000;strokeColor=light-dark(#C73500,#CC0066);strokeWidth=4;" parent="542" vertex="1">
                    <mxGeometry x="311" y="173.38" width="40" height="40" as="geometry"/>
                </mxCell>
                <mxCell id="736" value="" style="ellipse;whiteSpace=wrap;html=1;aspect=fixed;fillColor=light-dark(#FA6800,#FFFF33);fontColor=#000000;strokeColor=light-dark(#C73500,#CC0066);strokeWidth=4;" parent="542" vertex="1">
                    <mxGeometry x="351" y="176.38" width="40" height="40" as="geometry"/>
                </mxCell>
                <mxCell id="737" value="" style="ellipse;whiteSpace=wrap;html=1;aspect=fixed;fillColor=light-dark(#FA6800,#FFFF33);fontColor=#000000;strokeColor=light-dark(#C73500,#CC0066);strokeWidth=4;" parent="542" vertex="1">
                    <mxGeometry x="443" y="172.38" width="40" height="40" as="geometry"/>
                </mxCell>
                <mxCell id="738" value="" style="ellipse;whiteSpace=wrap;html=1;aspect=fixed;fillColor=light-dark(#FA6800,#FFFF33);fontColor=#000000;strokeColor=light-dark(#C73500,#CC0066);strokeWidth=4;" parent="542" vertex="1">
                    <mxGeometry x="417" y="172.38" width="40" height="40" as="geometry"/>
                </mxCell>
                <mxCell id="739" value="" style="ellipse;whiteSpace=wrap;html=1;aspect=fixed;fillColor=light-dark(#FA6800,#FFFF33);fontColor=#000000;strokeColor=light-dark(#C73500,#CC0066);strokeWidth=4;" parent="542" vertex="1">
                    <mxGeometry x="467" y="172.38" width="40" height="40" as="geometry"/>
                </mxCell>
                <mxCell id="740" value="&lt;font style=&quot;color: rgb(255, 255, 51);&quot;&gt;1 Coulomb Charge&lt;/font&gt;" style="text;html=1;align=center;verticalAlign=middle;whiteSpace=wrap;rounded=0;fontStyle=1" parent="542" vertex="1">
                    <mxGeometry x="259" y="410" width="95" height="30" as="geometry"/>
                </mxCell>
                <mxCell id="741" value="" style="shape=image;verticalLabelPosition=bottom;labelBackgroundColor=default;verticalAlign=top;aspect=fixed;imageAspect=0;image=data:image/png,iVBORw0KGgoAAAANSUhEUgAAAJcAAAArCAIAAAD69Y0gAAAAAXNSR0IArs4c6QAABEhJREFUeAHtmc1x7SAMhVOJCqERCqEPSshMNlmwSQEpgGxTA4WQeT4zGo34MdcXxy8eWGHMFQd9QmDuS17l73vg5e9PYc0gL4p3CIJFcVG8gwfuMIe1FhfFO3jgDnNYa3FRvIMH7jCHtRYnUIwxOudCCMqWc85aa4zx3qtXcx8Xxaf8mVKy1jrniEihstZyy9kgF8WnKPKPFcUYIxHFGNHBe2+t5c7TK4viHJcqit57STGEQEQppTmDFVYWxcIlhxoURWCTa1FCrY6QUvLeYyuV2Tjn7Jyr/oQbH6OYUjLGPBRTEIdN3lr70G9Z5bEKhubNSRmRwpxzTwpTFHPOxhimaK3tUIQSIsL2GbfivYcF7LtKvHocoogYMcbQVsYnjM3fWhtjhFZjjFIw/TGEgH0IaqsUU0pEBHgsjJ0OSb5blOySIjTg+NqhiB20evzBgiai8vSrRh+l6L3HeA/ldyKSuzrcqpylBD3/CIpAUDoX9uFWHgs5RkVYahf+IVeqA8UYQwi81LgzV8BJjctvEWqdRcw9hyhyb9rK4FrE+ZuZpZSccy3FPMTECo4Y5VpEOKrNRp1HHpVRUgQ/2EEyUzZ5VbCLVIecs4q2sgNazqLIcdQauNWOyG29RYJqvVXtLYrVz7tWZ2Wz9VhS5CQJV5ShT1spg0wO4bYiW6r1sygiVyCdIsXtJnfoA8Xq3GKM8shQnY9sbIEBRaVHCpZGdut2K2Yr1lo2y7tqNSVC2+725L1ngx0lZ1GEp3BuxnwwzzIkS3FVkI8izDm3KCJNKe/0t6hS5GBLa760FZXVB22W3c6lKMMQiWVwXwRInuQBhB2KOGz/DsXS4zlnRMzI4bP687LxLIqIdyKSQ1Y3JNlB1hnkMYR/gmJrpUo/jNTPpSg/M3AHob49+hJxrJULut9fvf0fMqqShEdEswrxsic+ssv2suUsirwvyiHROJhUc85YhYPnNDkQ6gcoqrArbU5pgbBdP4xfk51FEUKVU0BRNbb8womUU2urZ6u9RbHajkbeiVs2p7Tzl2Ino4YQxsVMo/j19fX9/c2TrJ5lQLH6FcE/RIUR4vEYyBaY6lc/tHU+wJXCZx5xVdTZKdBhXMwcih8fH7QVOTBuwGULPjZ25w+EqtsBkC2K1fs2XEarQc97RCRVcyYun6XfdmUMUcQFEqIVl8hqr3p7e6OtfH5+8pDsLOzSg8FeRcg2q1dZ/BYV3O+wWmMM1MpPC6QK7z3uSge1qYGefESQQR6u62KM/FfGQ8aHKPLlSxBFJcbX19f393c1NhYQ32uMxFdnq4Dx3Q7whVD6r4rbfCmP73WNMb/8lxnLgAZ8lQGn8ir37FeGKPZNrLeXe2BRvBzBBAGL4gQnXm5iUbwcwQQBi+IEJ15uYlG8HMEEAYviBCdebmJRvBzBBAGL4gQnXm5iUbwcwQQBi+IEJ15uYlG8HMEEAYviBCdebuIHeAkKhzNWYAQAAAAASUVORK5CYII=;" parent="542" vertex="1">
                    <mxGeometry x="447.99999999999994" y="3.5" width="115.88" height="33" as="geometry"/>
                </mxCell>
                <mxCell id="742" value="" style="endArrow=classic;html=1;entryX=0;entryY=0.5;entryDx=0;entryDy=0;" parent="542" source="700" target="741" edge="1">
                    <mxGeometry width="50" height="50" relative="1" as="geometry">
                        <mxPoint x="371" y="240" as="sourcePoint"/>
                        <mxPoint x="421" y="190" as="targetPoint"/>
                    </mxGeometry>
                </mxCell>
                <mxCell id="743" style="edgeStyle=none;html=1;exitX=0;exitY=1;exitDx=0;exitDy=0;entryX=0.5;entryY=1;entryDx=0;entryDy=0;" parent="542" source="623" target="623" edge="1">
                    <mxGeometry relative="1" as="geometry"/>
                </mxCell>
                <mxCell id="744" value="" style="strokeWidth=2;html=1;shape=mxgraph.flowchart.annotation_2;align=left;labelPosition=right;pointerEvents=1;" parent="541" vertex="1">
                    <mxGeometry x="310" width="50" height="330" as="geometry"/>
                </mxCell>
                <mxCell id="745" value="" style="shape=image;verticalLabelPosition=bottom;labelBackgroundColor=default;verticalAlign=top;aspect=fixed;imageAspect=0;image=data:image/png,iVBORw0KGgoAAAANSUhEUgAAAR8AAABHCAIAAACxn9Q0AAAAAXNSR0IArs4c6QAACURJREFUeAHtXU3O1LoSvSuxEMvIGIkleM4WMmQFSChDFpEFMAQhIeWtAfHEIOoBY2ZMfO/NeSrqVTluJ1/c/X35jgctp2KX7ZM6/ik76b8SAxEgAm0Q+KuNWmolAkQgkV00AiLQCgGyqxWy1EsEyC7aABFohQDZ1QpZ6iUCZBdtgAi0QoDsaoUs9RIBsos2QARaIXBOdk3TFGOcpqkVbNRLBCoQOBW7xnHs+77rurAEsqvCAJikIQKnYtcwDOMSYowhBLKroeFQdQUCp2KXtJfsEigYuSMCZNcdwWfRJ0eA7Dr5A2bz7ogA2XVH8Fn0yREgu07+gNm8OyJAdt0RfBZ9cgTIrpM/YDbvjgiQXXcEn0U/agTmefb1m6YpK/cpUzrpu8nY7xrHMdtmConAGgLzPOPETwjBsAhy/MYYzd2swjOPXWRX9pFTWEBgmqZxHIdhMOya57nrOsnY932NdZFdghgjROB/CIzjaNg1jqMer4YlXMXrVOxCr9P3fVhCjLHv+2EYagbxq0gxwfNBwLNrmqYQghCs67oaozohu9Cv6N8aIJ6P6fiWblqpI/u8BK8qpfQY0L5ah3KTPbtSSpgugmM108LTejWyT51Cg8A8z3D/xBi7rhuGwSTwl9M04QUf/EpfLilhlzJrwAtBesUiKRtFpmnC5GVNv26yrz9yZdmFlwbXGp4t7lRjV7aFFGYRkKkO7uKy3OWDWvJej/TlOhfsMqgQY8xW4FghvA6q2OD1ozeRSR2yyKVO79mlvRroMvq+11mycbIrC8vJhfM8hxD0kIIuuTzhCSH0fa+5JB254DWOY9d1GLvwrp3cah0ZxxHz1bAEXxy6A91GsMgP2p5dxo0BVb4IIyG7DCDP4hLGoa0K2ziaOQYIEDKEoHOJA0kywrdm8j78UvRfVSX19CnRFxg51lFG6NkVY9QN10OZyasvyS6NxrOIF+yv3H5YpzYyzCf1a+C72dV1ncw5TTVQ4UqCrbUOcj1coxQ0Siuf5xm9BkZC3BqGQc8h4Ys29fSXZJfH5OQSoURKqe/7uIQ1yzZYaCsUN5o2WWEXdkfKrjmtHKOBrwZq6+U6r46vsQt6dFWRC+wS/XCK9CpIk+HVwKJLTy916SZOdhlAHu/lPM9TdRCb8O3BtAerI6xVYDF6UPK5shL08Xp9j3UXVmjo73WXn1UiQk+wrdTCfkBYgqhFRFpt5GBXJVtM3quXZNdViB5LgmEYVJd6JSqdsa+9+Po0ncATLfEZjSQ7GoBduvRuCQW2a7WaYDuoVWAXWr02dt2TXZfL5T8M7RHQdtYuLq4IXQS69nrvOWiQXSwZIm3lLTSDDJqluraF+NrM8PGOXZfLJTA0RuDLly8FoznwFuwshP/bEcoKC4ViA7qQQG6BXfW8TSmhMnrCKdquRvaxaweNr9ak9qzG5XL5L0N7BGoe2MPTZHtxYZcZebLFwRGib0kuf3hcJqI6fSGOCSG8I5tmqtC5xq7sPDalFJZwT3YVsOCtmyEg/j0Yd/m3sJCAne0eu1AN3Wo5T5Sl6NqCR2uQuF5r4WjFVoKtsSulBAeGlIVIWIIRHnVJr8ZRSDbXI9svNZFybfwmD4ihTfnr16/v37///v27VjUMg5njwZqRBtwwM7r6dZc5aQUXhdnG1ZXJxgvswglDGWbFBWJalFW7T0h27cPtaefCeKK5BA7oVr148eKfbeLXr1+LUKaUcAPi15+o0sMmbN176kSnRDy1cGvrCCbs0iyCKt+D7PadSLXLEbKrjM/+u9n3ynDgKHtrf0m7cgrB5FVczYqU0qtXr0IIb968gXqx2uCC7vvF44eXfOH8qFnVZN2PUrRMPiHJ/mKqjGEZnMdxR51YWi0HMnQXo1MeEie7DoHxjxLwx0+9UkrysM2xmj+ZbxuTwwd933sC/Pr16/Pnz7pGa1vZZpSY5xkTSO/h0NoOj69VzxSEVuNZ+FabxA+8JLseCGAmO758Yl4dR68pqbuuM2OF3GLkNAiQXU0eJab4ulM3G0Teqd2kHlR6VwTIribwe3bBByCFGbKJnJEzIfAgdmEKu3WGg41CrDubrin9c4LRezkkWA7hhZ8HOh48u8zMMCxhrSaUnwOBPezSC/cQwiZ2aSeSN8EWmMI7hGPgYQnZUnTF4B32fqrCRpPRmW2auMVw1LXGT23U8vJpIbCHXfgDVQxcm9hlpkPY3bvB8IUKi0/ZPyHc0jUBPbQErjD9qSkdN11Mll1AbBgGRMgu/yBOJtnDLoEA9DCGJXdNBBv52l4xE6vMbrTtuwxL8Hn9XioOzuidHJ+rIMmyS6c3r9DrW4yfBoHbsQtbQDt2GMyXUgz0mwgQlmA0rI1p2T0rk3ft0rNLS1Ci9iiu6aH8SSNwI3aJBeMFW3yWoJJp2JrM2mKMcdPQF5ZgHpjUzcjBrk36cXRN3DaYOqLmONGDrbAYY2XbTZV4+bQQuBG75Fw2qKLtrwavLMG2UkteNzAlSt2MfDe7zKEB6RemadJ8M8Xx8nwI3Ihd8Eebr1thtVPZi2uCYRzYOqqssQtzNu9juJnT5XxWxRYBgVuzS3MJZl2/cALB9m2yobVhCYjLL9klUDByLAI3Yhcs2LyxJ1MymTtdbZuccb6aMpsgLMEUJ9UwWfbNDI0SXj5nBG7ErqwFi9CY+9rzkFd96j/iZVSFJZjipBomMdilB1uTgJdEoIzAk2GXXmvhLIUhSbmduBuW4DOCSEbDWmKTjJdEYA2BVuz69u3bp0+fdKmwYG3ZGDS8O0HnQlxTC5J9BAtL0HWAtrV3wmvqBg38JQIegSbs+vnz58uXL0MI7969kyL9kgmSq1MvTy3o3EGwsATPLiwLzTkSHqeQZ8fIPgT2sEs+CrvY6r9/d4kPw4rV/vjxA7fevn2rqyUueHm/sMZhWNh7hf9QytVl6TiqhwEKuwKQ6DRCddQNH4LWCRgnAlsR2MMu/C+T+TWvbHz8+PHDhw+/f/82FZLvjNd/66dMnvJdlI5TvLrC2NVdq1vlHzGa7LwkAgaBPewyKnhJBIhAFgGyKwsLhUTgAATIrgNApAoikEWA7MrCQiEROAABsusAEKmCCGQRILuysFBIBA5AgOw6AESqIAJZBMiuLCwUEoEDECC7DgCRKohAFgGyKwsLhUTgAATIrgNApAoikEXgb7FhibnKcnhtAAAAAElFTkSuQmCC;" parent="541" vertex="1">
                    <mxGeometry y="118.63" width="287" height="71" as="geometry"/>
                </mxCell>
                <mxCell id="746" value="Number of Electrons" style="text;html=1;align=center;verticalAlign=middle;whiteSpace=wrap;rounded=0;fontStyle=1" parent="541" vertex="1">
                    <mxGeometry x="70" y="80" width="140" height="30" as="geometry"/>
                </mxCell>
                <mxCell id="747" value="" style="group" parent="1" vertex="1" connectable="0">
                    <mxGeometry x="230" y="10" width="700" height="310" as="geometry"/>
                </mxCell>
                <mxCell id="748" value="" style="group;strokeWidth=4;" parent="747" vertex="1" connectable="0">
                    <mxGeometry y="180" width="150" height="115" as="geometry"/>
                </mxCell>
                <mxCell id="749" value="" style="group" parent="748" vertex="1" connectable="0">
                    <mxGeometry x="70" y="30" width="80" height="85" as="geometry"/>
                </mxCell>
                <mxCell id="750" value="" style="ellipse;whiteSpace=wrap;html=1;strokeColor=light-dark(#000000,#99FFFF);fillColor=light-dark(#007FFF,#3333FF);strokeWidth=4;" parent="749" vertex="1">
                    <mxGeometry width="80" height="40" as="geometry"/>
                </mxCell>
                <mxCell id="751" value="" style="shape=xor;whiteSpace=wrap;html=1;rotation=90;fillColor=#1ba1e2;fontColor=#ffffff;strokeColor=#006EAF;strokeWidth=4;" parent="749" vertex="1">
                    <mxGeometry x="10" y="15" width="60" height="80" as="geometry"/>
                </mxCell>
                <mxCell id="752" value="" style="endArrow=none;dashed=1;html=1;dashPattern=1 3;strokeWidth=2;exitX=0.477;exitY=0.93;exitDx=0;exitDy=0;exitPerimeter=0;entryX=0.503;entryY=0.07;entryDx=0;entryDy=0;entryPerimeter=0;" parent="749" source="751" target="751" edge="1">
                    <mxGeometry width="50" height="50" relative="1" as="geometry">
                        <mxPoint x="15" y="100" as="sourcePoint"/>
                        <mxPoint x="65" y="50" as="targetPoint"/>
                    </mxGeometry>
                </mxCell>
                <mxCell id="753" value="" style="endArrow=none;dashed=1;html=1;dashPattern=1 3;strokeWidth=2;exitX=0.7;exitY=0.9;exitDx=0;exitDy=0;exitPerimeter=0;entryX=0.7;entryY=0.1;entryDx=0;entryDy=0;entryPerimeter=0;" parent="749" source="751" target="751" edge="1">
                    <mxGeometry width="50" height="50" relative="1" as="geometry">
                        <mxPoint x="16" y="64" as="sourcePoint"/>
                        <mxPoint x="84" y="65" as="targetPoint"/>
                    </mxGeometry>
                </mxCell>
                <mxCell id="754" value="" style="shape=flexArrow;endArrow=classic;html=1;flowAnimation=1;strokeWidth=1;" parent="748" edge="1">
                    <mxGeometry width="50" height="50" relative="1" as="geometry">
                        <mxPoint as="sourcePoint"/>
                        <mxPoint x="110" y="60" as="targetPoint"/>
                        <Array as="points">
                            <mxPoint x="50"/>
                        </Array>
                    </mxGeometry>
                </mxCell>
                <mxCell id="755" value="" style="endArrow=none;dashed=1;html=1;dashPattern=1 3;strokeWidth=2;exitX=0.863;exitY=0.78;exitDx=0;exitDy=0;exitPerimeter=0;" parent="748" source="751" edge="1">
                    <mxGeometry width="50" height="50" relative="1" as="geometry">
                        <mxPoint x="90" y="100" as="sourcePoint"/>
                        <mxPoint x="130" y="107" as="targetPoint"/>
                    </mxGeometry>
                </mxCell>
                <mxCell id="756" value="" style="endArrow=classic;startArrow=classic;html=1;" parent="747" edge="1">
                    <mxGeometry width="50" height="50" relative="1" as="geometry">
                        <mxPoint x="110" y="310" as="sourcePoint"/>
                        <mxPoint x="660" y="310" as="targetPoint"/>
                    </mxGeometry>
                </mxCell>
                <mxCell id="757" value="1 metre" style="edgeLabel;html=1;align=center;verticalAlign=middle;resizable=0;points=[];" parent="756" vertex="1" connectable="0">
                    <mxGeometry x="-0.0844" y="-2" relative="1" as="geometry">
                        <mxPoint x="32" as="offset"/>
                    </mxGeometry>
                </mxCell>
                <mxCell id="758" value="9 Arab N or 9 Billion N" style="text;html=1;align=center;verticalAlign=middle;whiteSpace=wrap;rounded=0;fontStyle=1" parent="747" vertex="1">
                    <mxGeometry x="325" y="250" width="145" height="30" as="geometry"/>
                </mxCell>
                <mxCell id="759" style="edgeStyle=none;html=1;" parent="747" source="760" edge="1">
                    <mxGeometry relative="1" as="geometry">
                        <mxPoint x="620" y="258.38403041825086" as="targetPoint"/>
                    </mxGeometry>
                </mxCell>
                <mxCell id="760" value="" style="shape=image;verticalLabelPosition=bottom;labelBackgroundColor=default;verticalAlign=top;aspect=fixed;imageAspect=0;image=data:image/png,iVBORw0KGgoAAAANSUhEUgAAAHIAAAArCAIAAAArPksVAAAAAXNSR0IArs4c6QAAA8lJREFUaAXtmdGRJSEIRScSAjERAzEPAzERAzEQp9a7RTGIjWNN78eOfrxSGxCPiHa/j37LCwQ+XrB5TfaL9ZUguFgv1lcIvGL0RuvF+gqBV4zeaL1YXyHwitHfEq0ppTBKKeUVkF+N/gqsMcacMyYeQvgHZP9/rDlnIqq1AmtKKcb4NbZ+vvVbsLbWAA+UufnzRIfFi/Uv2NZaEYWjm7nXqfCjubKLtbUWYySiEEJK6e3VVo621vIoqh9NPI0xmr611kIIjIlG4SYbLKXEUSAQQuBHqMA+nhJRSkkJyOYW1lIKEeWc2ygYQFp5qV5KyTljOeHAPFBrDZOEbzlnCRHyMFJrZXCrsIA1GsU82YjI7FeO+VgxkkzzPBNl68ebwJpzTimtsAI6D43YnGOt1lpKQVwTEcurCvZECIGI5JQhhokrFbPpYzWnhDugafGNTtOH3nutdd6P6ujvvQMoHJOXrdnVGCMWgEZRQY1EMWvNPT5WLB3f+2ACMTJnKDkAYk32yHqtVdmUT1V9hdXsB1aZ+0IIGAuxrGDJsTiQzVk/5HdppPeNz9g0ikIArKpTmcYpZ8rUWud9qtRl08TXe0e/SnY4CeQWTikhk8xpV44C6OjB2hCRXINndWnKj1aTIBZTRoQ0ynWT7HeZMr55heCbiVUtGw40dsysqGBUASuhm+qy08fK1wCpRqO4WHvviuwB0wesmPkOVun8qo7Eyk+xFUIICNj9xLqVBMBFLj5Az2cFO6QqTPaM6RlWzpLKmYemUsF5yDcqFcsPdraw4sDF0Q/TfPubd+VqMJBVfq+E5/5Vbt1PArNN1WPucewGpOn9xLqLFXsZJztOf3P3KUdls5QSQni+3Eh5VT/AKo8sZc1smsHI+/K7+8zPraYTNIr5aO4EU6yN6f2sonpWWHFeq00zX7CUNbOpEivLIIAQE9zpVrawxhjl6YQ1lD0PwzBTyDy/3a/srLCarwMQVufYyjJ7tUpQfNNSi/ds0MfKmZsN4ZvA87sAhM3T84DsCisSojxOe+/4HsTe7lTU2isVBOzOfFnRx4oXYaxVaw3/XuyMgU8bPJKsgKwbULXWNAqNgg9UKSWpyO7hZooF2HEP/mA6sL9K/ZCB/OavjxU3Af4vCN+xdqzL9xNT3hXAC674CvqnmnNW1HixkQFds9IZ5Hr+VZYh2Voz+6UdVd/CqnRu0yVwsbqITgQu1hNqrs7F6iI6EbhYT6i5Oheri+hE4GI9oebqXKwuohOBi/WEmqtzsbqITgQu1hNqrs7F6iI6EbhYT6i5Op8RURKO/2jTRgAAAABJRU5ErkJggg==;" parent="747" vertex="1">
                    <mxGeometry x="340" y="200" width="114" height="43" as="geometry"/>
                </mxCell>
                <mxCell id="761" value="Quantity of charge = 1 C" style="ellipse;shape=cloud;whiteSpace=wrap;html=1;fillColor=#e51400;fontColor=#ffffff;strokeColor=light-dark(#B20000,#0000CC);fontStyle=1" parent="747" vertex="1">
                    <mxGeometry x="287.5" width="220" height="70" as="geometry"/>
                </mxCell>
                <mxCell id="762" style="edgeStyle=none;html=1;entryX=0.13;entryY=0.77;entryDx=0;entryDy=0;entryPerimeter=0;" parent="747" source="750" target="761" edge="1">
                    <mxGeometry relative="1" as="geometry"/>
                </mxCell>
                <mxCell id="763" style="edgeStyle=none;html=1;entryX=0;entryY=0.5;entryDx=0;entryDy=0;" parent="747" source="751" target="760" edge="1">
                    <mxGeometry relative="1" as="geometry"/>
                </mxCell>
                <mxCell id="764" value="&lt;b&gt;Force exerted&lt;/b&gt;" style="ellipse;shape=cloud;whiteSpace=wrap;html=1;fillColor=light-dark(#FFFFFF,#FF3399);" parent="747" vertex="1">
                    <mxGeometry x="334" y="130" width="120" height="80" as="geometry"/>
                </mxCell>
                <mxCell id="765" style="edgeStyle=none;html=1;entryX=0.96;entryY=0.7;entryDx=0;entryDy=0;entryPerimeter=0;" parent="747" target="761" edge="1">
                    <mxGeometry relative="1" as="geometry">
                        <mxPoint x="643.7450942694411" y="211.7258513215454" as="sourcePoint"/>
                    </mxGeometry>
                </mxCell>
                <mxCell id="766" value="" style="group;strokeWidth=4;" parent="747" vertex="1" connectable="0">
                    <mxGeometry x="550" y="180" width="150" height="115" as="geometry"/>
                </mxCell>
                <mxCell id="767" value="" style="group" parent="766" vertex="1" connectable="0">
                    <mxGeometry x="70" y="30" width="80" height="85" as="geometry"/>
                </mxCell>
                <mxCell id="768" value="" style="ellipse;whiteSpace=wrap;html=1;strokeColor=light-dark(#000000,#99FFFF);fillColor=light-dark(#007FFF,#3333FF);strokeWidth=4;" parent="767" vertex="1">
                    <mxGeometry width="80" height="40" as="geometry"/>
                </mxCell>
                <mxCell id="769" value="" style="shape=xor;whiteSpace=wrap;html=1;rotation=90;fillColor=#1ba1e2;fontColor=#ffffff;strokeColor=#006EAF;strokeWidth=4;" parent="767" vertex="1">
                    <mxGeometry x="10" y="15" width="60" height="80" as="geometry"/>
                </mxCell>
                <mxCell id="770" value="" style="endArrow=none;dashed=1;html=1;dashPattern=1 3;strokeWidth=2;exitX=0.477;exitY=0.93;exitDx=0;exitDy=0;exitPerimeter=0;entryX=0.503;entryY=0.07;entryDx=0;entryDy=0;entryPerimeter=0;" parent="767" source="769" target="769" edge="1">
                    <mxGeometry width="50" height="50" relative="1" as="geometry">
                        <mxPoint x="15" y="100" as="sourcePoint"/>
                        <mxPoint x="65" y="50" as="targetPoint"/>
                    </mxGeometry>
                </mxCell>
                <mxCell id="771" value="" style="endArrow=none;dashed=1;html=1;dashPattern=1 3;strokeWidth=2;exitX=0.7;exitY=0.9;exitDx=0;exitDy=0;exitPerimeter=0;entryX=0.7;entryY=0.1;entryDx=0;entryDy=0;entryPerimeter=0;" parent="767" source="769" target="769" edge="1">
                    <mxGeometry width="50" height="50" relative="1" as="geometry">
                        <mxPoint x="16" y="64" as="sourcePoint"/>
                        <mxPoint x="84" y="65" as="targetPoint"/>
                    </mxGeometry>
                </mxCell>
                <mxCell id="772" value="" style="endArrow=none;dashed=1;html=1;dashPattern=1 3;strokeWidth=2;exitX=0.863;exitY=0.78;exitDx=0;exitDy=0;exitPerimeter=0;" parent="766" source="769" edge="1">
                    <mxGeometry width="50" height="50" relative="1" as="geometry">
                        <mxPoint x="90" y="100" as="sourcePoint"/>
                        <mxPoint x="130" y="107" as="targetPoint"/>
                    </mxGeometry>
                </mxCell>
                <mxCell id="776" value="Electric charge" style="text;html=1;align=center;verticalAlign=middle;whiteSpace=wrap;rounded=0;" vertex="1" parent="747">
                    <mxGeometry x="10" y="120" width="60" height="30" as="geometry"/>
                </mxCell>
                <mxCell id="777" value="Same quantity of electric charge" style="text;html=1;align=center;verticalAlign=middle;whiteSpace=wrap;rounded=0;" vertex="1" parent="747">
                    <mxGeometry x="640" y="130" width="60" height="30" as="geometry"/>
                </mxCell>
                <mxCell id="775" value="" style="shape=flexArrow;endArrow=classic;html=1;flowAnimation=1;" edge="1" parent="1">
                    <mxGeometry width="50" height="50" relative="1" as="geometry">
                        <mxPoint x="1020.39" y="180" as="sourcePoint"/>
                        <mxPoint x="890.0004495852919" y="242.56848925751865" as="targetPoint"/>
                        <Array as="points">
                            <mxPoint x="960.39" y="180"/>
                        </Array>
                    </mxGeometry>
                </mxCell>
            </root>
        </mxGraphModel>
    </diagram>
</mxfile>